<svg version="1.1" id="Layer_1" xmlns="http://www.w3.org/2000/svg" xmlns:xlink="http://www.w3.org/1999/xlink" x="0px" y="0px"
	 width="100%" viewBox="0 0 926 670" enable-background="new 0 0 926 670" xml:space="preserve">
<path fill="#FFFFFF" opacity="1.000000" stroke="none" 
	d="
M596.000000,671.000000 
	C397.333344,671.000000 199.166672,671.000000 1.000000,671.000000 
	C1.000000,447.666656 1.000000,224.333328 1.000000,1.000000 
	C309.666656,1.000000 618.333313,1.000000 927.000000,1.000000 
	C927.000000,224.333328 927.000000,447.666656 927.000000,671.000000 
	C816.833313,671.000000 706.666687,671.000000 596.000000,671.000000 
M310.806122,190.195877 
	C310.806122,190.195877 310.745697,190.191559 310.843109,189.459671 
	C310.468658,188.741623 310.133911,187.999374 309.713562,187.309265 
	C305.951141,181.132446 302.482605,175.229645 302.707611,167.257568 
	C303.289673,146.635681 303.178894,125.979881 302.700012,105.352585 
	C302.581024,100.227448 300.836609,94.720840 298.401123,90.157112 
	C293.531494,81.032242 284.703735,78.311455 272.681030,81.020355 
	C264.410126,82.883911 258.228058,91.907967 259.453552,100.903328 
	C259.474518,101.274261 259.495514,101.645195 258.748169,102.439873 
	C258.559540,102.890808 258.207031,103.341339 258.205902,103.792747 
	C258.155884,123.558846 258.117218,143.325073 258.173950,163.091019 
	C258.176727,164.055191 259.048187,165.016876 259.455902,166.647659 
	C259.450562,167.317169 259.445251,167.986694 259.127991,169.605133 
	C258.476807,178.264465 260.304596,186.251389 263.733826,194.350082 
	C268.133606,204.740768 274.416565,213.665741 282.575043,220.953400 
	C290.783020,228.285263 299.650055,235.190781 310.970062,237.554153 
	C317.651184,238.949051 324.256287,241.207413 330.993927,241.682388 
	C336.927307,242.100662 342.996582,240.574020 349.007111,239.917740 
	C360.284790,238.686386 370.255890,233.664978 378.918610,227.070816 
	C390.045685,218.600739 399.035950,208.176788 404.745758,194.711655 
	C408.837799,185.061554 411.040131,175.107025 411.559998,165.212341 
	C412.650452,144.458298 412.295013,123.594292 411.639252,102.803642 
	C411.447479,96.724525 409.376892,90.221939 404.250122,85.680412 
	C397.131622,79.374519 389.203857,77.732101 380.145111,81.113960 
	C373.763794,83.496254 367.634247,92.166634 368.420074,99.240204 
	C368.527466,121.457367 368.634888,143.674530 368.075500,166.135086 
	C366.927307,170.326660 366.251862,174.724091 364.534546,178.667847 
	C360.716400,187.436295 348.378021,199.345078 335.035309,198.094818 
	C332.269409,197.835663 329.434631,198.311234 326.082428,198.438675 
	C325.716278,198.436752 325.350098,198.434845 324.768372,197.699295 
	C320.115326,195.218323 315.462280,192.737335 310.806122,190.195877 
M865.944458,221.099808 
	C865.964233,190.023636 866.005249,158.947449 865.991577,127.871300 
	C865.987183,117.905685 865.838013,107.940132 865.849182,97.222366 
	C865.274414,95.907837 864.675598,94.603233 864.128601,93.277260 
	C858.320740,79.199570 841.217285,74.929955 830.048279,86.181168 
	C819.797913,96.506973 809.452881,106.738838 799.159851,117.022339 
	C792.496521,123.679466 785.885498,130.389420 779.177917,137.001541 
	C777.161926,138.988785 775.213318,140.165359 772.476624,137.350937 
	C763.936584,128.568497 755.159668,120.014999 746.417664,111.430725 
	C736.864563,102.049973 727.380310,92.592255 717.597839,83.455154 
	C713.337769,79.476120 700.701477,78.598946 696.344727,81.995659 
	C689.266907,87.513817 684.209595,94.199974 684.259583,104.025223 
	C684.449402,141.340454 684.247253,178.657730 684.458618,215.972733 
	C684.481995,220.100769 685.618225,224.480515 687.278931,228.289825 
	C691.261292,237.423920 701.511292,242.649490 709.990967,240.607574 
	C720.512329,238.074036 727.961792,228.027924 727.881531,219.140823 
	C727.704224,199.484802 727.822449,179.826035 727.850891,160.168442 
	C727.853333,158.465012 728.082397,156.761902 728.296143,153.822067 
	C730.596130,155.936905 731.934875,157.101852 733.200134,158.341736 
	C742.711121,167.662247 751.957581,177.271133 761.782043,186.247864 
	C770.809082,194.496033 783.655579,193.239380 792.061340,184.346237 
	C799.011597,176.992996 806.268677,169.928513 813.436646,162.782990 
	C816.168884,160.059296 819.031311,157.466248 822.799194,153.900650 
	C822.971741,156.976532 823.151428,158.708191 823.153320,160.440033 
	C823.173889,179.098099 823.455505,197.762558 823.046448,216.411682 
	C822.837830,225.919159 826.989685,232.697006 834.257202,237.738235 
	C840.460022,242.040939 847.724426,242.285034 854.133057,238.640625 
	C860.317078,235.123947 865.648865,230.183441 865.944458,221.099808 
M334.065582,573.865784 
	C335.533173,574.548157 336.951263,575.675903 338.475800,575.845276 
	C357.515381,577.959595 376.679779,578.528625 395.245789,573.497314 
	C413.834961,568.459656 430.556976,558.986389 446.420502,548.067200 
	C455.141693,542.064209 463.962280,536.192749 472.926788,530.562439 
	C476.432373,528.360718 480.455109,526.982361 485.030365,525.213440 
	C486.607056,525.217285 488.183777,525.221191 490.035950,525.872192 
	C494.626770,528.010010 499.458801,529.750916 503.760315,532.364807 
	C514.042725,538.613098 523.771057,545.835571 534.330994,551.539429 
	C540.005798,554.604614 545.927185,558.530151 553.744507,557.841125 
	C554.174805,557.837402 554.605164,557.833679 555.445801,558.458984 
	C559.796936,559.003784 564.150818,559.526978 568.498596,560.097595 
	C579.048645,561.482178 589.251953,558.910522 597.960388,553.890625 
	C607.058350,548.646179 616.654663,546.803894 626.481567,544.995361 
	C637.612732,542.946838 648.062805,539.204590 657.810669,533.496216 
	C669.462463,526.672791 678.641235,517.354919 686.372070,506.287415 
	C695.868225,492.692719 702.315857,477.885498 703.802673,461.468933 
	C706.484680,431.858154 696.419189,406.141632 676.664734,384.511658 
	C664.741821,371.456787 649.393860,363.406799 632.103882,358.875610 
	C620.799805,355.913177 609.371277,354.902252 598.052002,356.410980 
	C584.313232,358.242188 570.782959,361.660095 557.178833,364.470825 
	C548.452759,366.273682 541.472656,363.644806 536.248657,356.469757 
	C533.711853,352.985504 531.253845,349.437378 528.904236,345.824463 
	C521.765259,334.846924 512.694580,325.999451 500.429871,321.059204 
	C479.528381,312.640076 460.893311,318.452484 443.648895,331.029816 
	C441.079407,332.903931 439.458832,333.238159 436.661774,331.528870 
	C421.988007,322.561646 406.372162,315.788727 389.435791,312.343506 
	C382.684631,310.970215 376.007446,308.481750 368.048218,310.813660 
	C363.706543,310.809540 359.364899,310.805450 354.379333,310.300262 
	C340.184418,308.846710 327.328522,314.183167 314.593628,318.957367 
	C300.513702,324.235901 287.792145,332.289062 275.959412,341.655609 
	C264.115845,351.030670 253.971817,361.971954 246.251831,374.934357 
	C237.383270,389.825317 231.538406,405.913483 229.524170,423.203125 
	C228.438248,432.524384 226.769424,441.977325 227.344040,451.248108 
	C228.334427,467.227325 231.750107,482.981171 238.543045,497.597992 
	C249.498749,521.171936 266.683929,539.717285 287.679962,554.631470 
	C299.837341,563.267334 313.580566,569.093445 327.788452,573.645020 
	C329.018738,574.039185 330.595703,573.351196 332.605194,573.188843 
	C333.001160,573.188354 333.397156,573.187927 334.065582,573.865784 
M134.383728,197.096390 
	C145.342117,208.048798 156.195984,219.108551 167.295135,229.916397 
	C174.872101,237.294540 182.865433,243.557190 194.664612,238.697876 
	C206.970749,233.629791 211.520660,218.521820 203.839951,208.213303 
	C198.349121,200.843918 191.189026,194.709152 184.703354,188.092529 
	C177.445221,180.687851 178.671204,182.323364 184.886353,176.128571 
	C198.692047,162.368057 205.333771,146.498337 201.874985,126.467155 
	C199.660828,113.644150 193.528915,103.708099 184.584900,95.011391 
	C177.553787,88.174690 169.126740,82.327263 159.564026,81.818054 
	C135.810272,80.553162 111.970688,80.932320 88.167038,80.558128 
	C77.124763,80.384537 66.482582,89.732109 67.801994,101.812805 
	C68.611168,109.221611 67.949394,116.790977 67.949852,124.288239 
	C67.951828,156.276566 67.928223,188.264954 68.000488,220.253128 
	C68.007149,223.200607 67.847351,226.542328 69.105621,229.020111 
	C73.051987,236.791245 84.189850,242.064804 91.299950,240.170486 
	C102.547440,237.173889 108.385033,229.945740 108.462303,218.812897 
	C108.517807,210.816162 108.398445,202.816544 108.594612,194.824051 
	C108.627014,193.503815 109.932945,191.056747 110.563400,191.084793 
	C118.653664,191.444626 127.811272,187.715622 134.383728,197.096390 
M561.628296,86.870079 
	C553.855774,77.826965 534.825928,78.676392 527.643311,91.781471 
	C516.293274,112.490120 504.319885,132.858307 492.530670,153.324692 
	C481.884003,171.807602 471.103455,190.213348 460.434662,208.683578 
	C454.347717,219.221542 457.329407,230.968277 467.890411,237.640060 
	C476.440216,243.041306 489.117004,240.297348 494.566254,231.440689 
	C497.862823,226.082764 501.451202,220.888275 504.457672,215.374573 
	C506.047913,212.458206 507.934845,211.358170 511.144562,211.369247 
	C534.800659,211.450806 558.458496,211.308594 582.111572,211.589294 
	C584.417358,211.616653 587.444885,213.491638 588.834839,215.438812 
	C592.078430,219.982590 594.625305,225.040894 597.278625,229.985123 
	C601.857483,238.517471 613.632202,244.097763 624.801270,237.770782 
	C635.941772,231.459885 638.579712,221.008652 633.641052,210.354584 
	C627.614136,197.352936 619.683472,185.226730 612.463623,172.787170 
	C605.747742,161.215790 598.881592,149.731628 592.085999,138.206436 
	C582.097534,121.266106 572.113098,104.323433 561.628296,86.870079 
z"/>
<path fill="#F0C488" opacity="1.000000" stroke="none" 
	d="
M489.760468,525.225037 
	C488.183777,525.221191 486.607056,525.217285 484.197754,525.139771 
	C480.814941,525.597107 477.918976,525.528259 475.775146,526.764160 
	C467.091095,531.770447 458.657532,537.209534 450.095703,542.430115 
	C437.902924,549.864624 426.096954,558.087341 413.357727,564.431030 
	C398.797699,571.681396 382.753754,574.707520 366.479156,574.882507 
	C355.591156,574.999573 344.688965,573.798645 333.793121,573.187439 
	C333.397156,573.187927 333.001160,573.188354 332.154999,572.824768 
	C330.708679,571.960510 329.741455,571.389038 328.711945,570.971069 
	C318.700043,566.906738 308.175018,563.783752 298.768921,558.620544 
	C282.080170,549.459778 268.061523,536.859253 256.210144,521.804871 
	C238.593964,499.427551 230.471375,473.869995 230.068954,445.704346 
	C229.856049,430.803711 232.132126,416.083008 236.677765,401.949707 
	C242.240280,384.654694 250.902664,368.894623 263.748138,355.774811 
	C276.485382,342.765503 290.966064,331.953430 307.724030,324.854919 
	C318.520142,320.281799 329.996765,317.280060 341.248077,313.834320 
	C345.729126,312.461975 350.425110,311.791382 355.023224,310.801331 
	C359.364899,310.805450 363.706543,310.809540 368.753052,311.131287 
	C376.115845,312.415924 383.020050,312.578247 389.378601,314.523773 
	C401.225586,318.148651 412.900635,322.458649 424.356689,327.187439 
	C430.265747,329.626556 435.550507,333.578186 440.723083,336.899628 
	C438.740479,337.659882 436.364960,337.931946 435.694122,339.145996 
	C431.893158,346.024384 427.217438,352.788361 425.245483,360.228912 
	C421.559113,374.138153 424.849854,387.616455 430.947174,400.551666 
	C436.313507,411.936096 444.563629,420.403534 456.297943,424.364471 
	C464.956909,427.287323 474.237640,428.624542 483.350281,429.873352 
	C492.079559,431.069580 500.474121,433.023865 504.842346,441.198029 
	C508.145966,447.379944 510.668671,454.350830 511.799438,461.255463 
	C515.898132,486.283020 525.814575,507.747375 545.685669,524.380249 
	C563.007324,538.879150 582.683899,546.288086 604.995850,547.419800 
	C597.261963,550.841736 589.823486,554.916016 581.872009,556.686951 
	C575.146790,558.184692 567.826599,556.959595 560.771545,557.062134 
	C558.856140,557.090027 556.947327,557.561890 555.035461,557.830017 
	C554.605164,557.833679 554.174805,557.837402 553.340027,557.453735 
	C552.233887,556.417603 551.624939,555.366211 550.816711,555.179993 
	C535.425659,551.634766 522.819275,542.956787 510.192810,534.013123 
	C504.177216,529.752075 498.268585,524.153259 489.760468,525.225037 
z"/>
<path fill="#F4D9B1" opacity="1.000000" stroke="none" 
	d="
M441.117371,336.846375 
	C435.550507,333.578186 430.265747,329.626556 424.356689,327.187439 
	C412.900635,322.458649 401.225586,318.148651 389.378601,314.523773 
	C383.020050,312.578247 376.115845,312.415924 369.215454,311.121399 
	C376.007446,308.481750 382.684631,310.970215 389.435791,312.343506 
	C406.372162,315.788727 421.988007,322.561646 436.661774,331.528870 
	C439.458832,333.238159 441.079407,332.903931 443.648895,331.029816 
	C460.893311,318.452484 479.528381,312.640076 500.429871,321.059204 
	C512.694580,325.999451 521.765259,334.846924 528.904236,345.824463 
	C531.253845,349.437378 533.711853,352.985504 536.248657,356.469757 
	C541.472656,363.644806 548.452759,366.273682 557.178833,364.470825 
	C570.782959,361.660095 584.313232,358.242188 598.052002,356.410980 
	C609.371277,354.902252 620.799805,355.913177 632.103882,358.875610 
	C649.393860,363.406799 664.741821,371.456787 676.664734,384.511658 
	C696.419189,406.141632 706.484680,431.858154 703.802673,461.468933 
	C702.315857,477.885498 695.868225,492.692719 686.372070,506.287415 
	C678.641235,517.354919 669.462463,526.672791 657.810669,533.496216 
	C648.062805,539.204590 637.612732,542.946838 626.481567,544.995361 
	C616.654663,546.803894 607.058350,548.646179 597.960388,553.890625 
	C589.251953,558.910522 579.048645,561.482178 568.498596,560.097595 
	C564.150818,559.526978 559.796936,559.003784 555.240601,558.144531 
	C556.947327,557.561890 558.856140,557.090027 560.771545,557.062134 
	C567.826599,556.959595 575.146790,558.184692 581.872009,556.686951 
	C589.823486,554.916016 597.261963,550.841736 605.374268,547.399902 
	C609.217957,545.356689 612.610229,543.679565 616.325439,541.981750 
	C617.410156,541.288391 618.171814,540.615723 619.107544,539.654968 
	C621.838867,536.893616 624.396118,534.420349 627.255005,531.829773 
	C628.039795,530.809937 628.522949,529.907410 629.166138,528.703125 
	C631.234375,525.618042 633.142395,522.834778 635.368774,520.001099 
	C636.123901,519.299622 636.560730,518.648621 637.017456,517.681885 
	C637.063599,516.945251 637.089783,516.524353 637.445435,516.039062 
	C638.496460,514.968994 639.218140,513.963257 639.958862,512.597656 
	C640.012634,511.517883 640.047485,510.797943 640.397034,510.030579 
	C641.161316,508.988525 641.610901,507.993927 642.065308,506.640320 
	C642.101013,505.564117 642.131958,504.846924 642.483459,504.040222 
	C643.507996,502.615021 644.212036,501.279266 644.930908,499.619446 
	C644.953247,498.862793 644.960632,498.430237 645.241577,497.792725 
	C645.633545,496.699646 645.752014,495.811554 645.891052,494.531189 
	C645.929260,493.091614 645.946838,492.044312 646.267029,490.729858 
	C647.351013,484.277222 648.698242,478.073090 645.962891,471.611053 
	C645.932312,470.172424 645.899719,469.126404 645.893127,467.773560 
	C645.612427,466.977783 645.305664,466.488892 644.993652,465.632202 
	C644.963196,464.529327 644.937805,463.794220 644.916382,462.717590 
	C644.005371,461.536499 643.090515,460.696991 642.150635,459.472504 
	C642.082214,458.059418 642.038818,457.031311 641.968079,455.681824 
	C641.319580,454.882202 640.698425,454.403992 640.058960,453.553833 
	C638.330627,449.474609 636.620544,445.767365 634.910583,441.715057 
	C633.957520,440.562561 633.004395,439.755157 632.025513,438.589539 
	C625.676392,431.478333 619.353027,424.725372 612.983704,417.651550 
	C612.279114,416.904907 611.620605,416.479095 610.761292,415.772919 
	C607.395264,413.973022 604.230042,412.453522 601.009644,410.617035 
	C600.299866,409.870789 599.645203,409.441498 598.616638,408.995361 
	C595.495117,407.988312 592.747559,406.998199 589.767090,405.724274 
	C585.687744,404.931213 581.841187,404.421936 577.529053,403.921570 
	C572.377075,403.928009 567.690674,403.925476 562.742371,403.656311 
	C558.129578,403.998718 553.260437,402.718719 549.516479,406.865540 
	C548.438171,406.893463 547.719055,406.904327 546.794922,406.673218 
	C545.395142,406.969025 544.200439,407.506744 542.683960,408.048340 
	C541.933838,408.076813 541.505493,408.101379 540.770264,408.101257 
	C539.975647,408.385193 539.487793,408.693848 538.674927,409.011047 
	C537.916809,409.039032 537.483765,409.058472 536.681763,409.050598 
	C534.830444,409.959473 533.347900,410.895691 531.460693,411.851288 
	C529.705322,411.884796 528.354736,411.898956 526.762817,411.659851 
	C525.015137,411.612793 523.508789,411.818970 521.585327,412.020264 
	C519.778076,412.021606 518.387878,412.027893 516.768188,411.751526 
	C515.334167,411.355408 514.129639,411.241943 512.559631,411.106506 
	C511.462189,411.067688 510.730255,411.050812 509.802856,410.761169 
	C508.745911,410.314148 507.884399,410.139832 506.734375,409.839783 
	C505.659851,409.444550 504.873871,409.175049 504.029846,408.574768 
	C502.980408,407.496765 501.989044,406.749603 500.699097,405.848938 
	C497.256958,402.138000 494.113373,398.580536 490.952271,394.681274 
	C489.973145,393.542603 489.011566,392.745728 487.938110,391.694641 
	C487.553528,390.958008 487.280823,390.475586 486.972595,389.675598 
	C486.321655,388.877106 485.706238,388.396149 485.073547,387.685059 
	C485.056274,387.454926 485.004150,386.996368 484.968628,386.675232 
	C484.298187,385.892517 483.663300,385.430908 483.010376,384.735504 
	C482.992340,384.501678 482.953217,384.034271 482.941833,383.692535 
	C481.983917,382.538818 481.037384,381.726837 480.072784,380.600189 
	C480.023987,379.866425 479.993256,379.447327 479.947876,378.688110 
	C478.994202,377.530701 478.055206,376.713440 477.056580,375.542175 
	C470.106415,363.907684 461.819519,353.760620 452.132965,344.774292 
	C450.241638,343.019653 448.078217,341.558289 445.991028,339.643982 
	C445.297150,338.881165 444.652527,338.435974 443.805969,337.735352 
	C442.775177,337.268768 441.946259,337.057556 441.117371,336.846375 
z"/>
<path fill="#E7A850" opacity="1.000000" stroke="none" 
	d="
M134.131561,196.843109 
	C127.811272,187.715622 118.653664,191.444626 110.563400,191.084793 
	C109.932945,191.056747 108.627014,193.503815 108.594612,194.824051 
	C108.398445,202.816544 108.517807,210.816162 108.462303,218.812897 
	C108.385033,229.945740 102.547440,237.173889 91.299950,240.170486 
	C84.189850,242.064804 73.051987,236.791245 69.105621,229.020111 
	C67.847351,226.542328 68.007149,223.200607 68.000488,220.253128 
	C67.928223,188.264954 67.951828,156.276566 67.949852,124.288239 
	C67.949394,116.790977 68.611168,109.221611 67.801994,101.812805 
	C66.482582,89.732109 77.124763,80.384537 88.167038,80.558128 
	C111.970688,80.932320 135.810272,80.553162 159.564026,81.818054 
	C169.126740,82.327263 177.553787,88.174690 184.584900,95.011391 
	C193.528915,103.708099 199.660828,113.644150 201.874985,126.467155 
	C205.333771,146.498337 198.692047,162.368057 184.886353,176.128571 
	C178.671204,182.323364 177.445221,180.687851 184.703354,188.092529 
	C191.189026,194.709152 198.349121,200.843918 203.839951,208.213303 
	C211.520660,218.521820 206.970749,233.629791 194.664612,238.697876 
	C182.865433,243.557190 174.872101,237.294540 167.295135,229.916397 
	C156.195984,219.108551 145.342117,208.048798 134.131561,196.843109 
M151.117706,121.324585 
	C150.756592,121.299225 150.395462,121.273865 149.518784,120.556007 
	C136.425186,120.379082 123.330467,120.092430 110.240021,120.225189 
	C109.145432,120.236290 107.215866,123.033798 107.147156,124.601311 
	C106.819916,132.065460 107.100327,139.553833 106.955574,147.029556 
	C106.897057,150.051666 107.983589,151.114929 111.006500,151.088486 
	C123.802139,150.976547 136.600754,151.130234 149.394119,150.925949 
	C150.989685,150.900482 152.560425,149.319687 154.677444,148.205688 
	C155.054031,148.090408 155.430618,147.975128 156.541855,147.917145 
	C158.677551,144.378677 161.795822,141.077988 162.722900,137.247040 
	C164.181046,131.221542 158.810425,121.325127 151.117706,121.324585 
M192.671234,126.301971 
	C192.364594,125.352280 191.981674,124.419830 191.762589,123.450348 
	C187.593643,105.001862 167.450317,88.248993 144.544983,89.759499 
	C136.093704,90.316826 127.574852,89.849403 119.086815,89.849380 
	C114.802345,89.849373 110.517876,89.849380 106.404449,89.849380 
	C106.956398,95.997787 107.807060,101.513741 107.834648,107.033813 
	C107.856735,111.452377 109.023842,113.241089 113.795929,113.106361 
	C125.104156,112.787102 136.428513,112.926155 147.744812,113.037598 
	C159.254395,113.150940 167.640701,120.755463 170.520813,133.440247 
	C172.221344,140.929855 166.000275,151.999573 157.481033,156.164490 
	C154.226089,157.755798 154.682449,159.330704 156.776184,161.395477 
	C159.619110,164.199112 162.447556,167.017441 165.286331,169.825287 
	C171.240341,175.714417 172.434814,175.777786 178.608475,169.854614 
	C190.821594,158.137039 194.793945,143.620117 192.671234,126.301971 
M78.942924,152.506760 
	C84.305893,151.717728 89.647942,150.605331 95.039383,150.256592 
	C98.469612,150.034729 99.882797,148.792572 99.873672,145.516724 
	C99.854668,138.700348 99.989098,131.880142 99.772171,125.070686 
	C99.730629,123.766495 98.485611,121.490585 97.590790,121.383980 
	C90.647560,120.556824 83.654030,120.151955 76.150345,119.576073 
	C76.150345,130.061020 76.120880,140.654785 76.236641,151.246964 
	C76.242477,151.781097 77.503113,152.301544 78.942924,152.506760 
M171.461731,187.837067 
	C170.020493,187.375214 168.493774,186.344955 167.152359,186.546738 
	C160.148544,187.600266 153.186676,188.939514 146.223846,190.251755 
	C145.087570,190.465912 144.019440,191.041519 141.827240,191.855972 
	C149.630142,199.469604 156.553955,206.396286 163.762955,213.012192 
	C164.537827,213.723297 168.101242,213.113861 168.455200,212.291931 
	C171.122971,206.097183 175.977859,202.478729 183.046143,199.640610 
	C178.998657,195.532654 175.474823,191.956192 171.461731,187.837067 
M77.110161,175.030670 
	C78.034988,176.197281 78.836884,177.493408 79.905945,178.508011 
	C84.488136,182.856705 90.342957,183.071411 95.249580,179.176453 
	C99.516701,175.789139 100.780968,169.581070 98.152397,164.922409 
	C95.215790,159.717819 88.914902,157.251282 83.727615,159.275726 
	C77.789879,161.593063 75.110649,167.382614 77.110161,175.030670 
M76.071732,217.912048 
	C76.058762,218.904709 75.923141,219.913803 76.053711,220.887207 
	C76.672440,225.499359 80.916763,230.076126 85.204254,230.848053 
	C91.010040,231.893341 95.297180,229.871658 98.087540,224.772751 
	C100.601425,220.179031 99.947792,215.593033 96.218025,211.655853 
	C89.962708,205.052689 80.320282,207.682709 76.071732,217.912048 
M76.446342,104.575348 
	C77.353859,105.957123 78.138939,107.440987 79.190750,108.702438 
	C83.083755,113.371391 89.251862,114.176865 94.359245,110.783310 
	C99.147400,107.601891 100.781273,101.547775 98.217667,96.486465 
	C95.353477,90.831718 89.963577,88.228615 84.260429,90.102135 
	C78.995018,91.831833 74.707298,97.808601 76.446342,104.575348 
M126.179466,173.786530 
	C128.519852,178.997925 133.412186,182.369934 138.038422,181.960266 
	C142.697067,181.547729 147.127258,178.123276 148.042526,174.227280 
	C149.657867,167.351273 148.342300,162.426285 142.934570,160.273682 
	C139.715561,158.992310 135.142365,158.678772 132.072540,160.003357 
	C126.928223,162.223053 125.071945,167.246353 126.179466,173.786530 
M185.798874,208.105957 
	C184.840195,208.365097 183.856110,208.554825 182.927139,208.895065 
	C178.283386,210.595856 175.481308,214.086456 175.215759,218.846085 
	C174.940994,223.770554 177.070389,228.111725 181.886276,230.038040 
	C186.184097,231.757141 190.511169,231.685532 194.448578,228.296936 
	C198.602615,224.721893 199.113617,220.213181 197.688934,215.637985 
	C196.101822,210.541214 191.976501,208.136551 185.798874,208.105957 
M76.237053,189.063400 
	C76.237053,193.279190 76.237053,197.494980 76.237053,201.332993 
	C83.053596,201.332993 89.186623,201.154678 95.298836,201.433258 
	C97.337204,201.526154 99.782227,202.624786 99.711708,199.614746 
	C99.638359,196.484650 102.122993,191.548584 97.642799,190.511383 
	C90.871513,188.943771 83.727119,188.987778 76.237053,189.063400 
M118.716934,159.117462 
	C116.233185,159.034348 113.685448,158.590424 111.291756,159.015045 
	C110.029602,159.238907 108.139641,160.925049 108.073456,162.042221 
	C107.750084,167.500839 107.752098,173.002686 108.104889,178.459137 
	C108.184853,179.695847 109.969299,181.577988 111.231743,181.825897 
	C113.890686,182.348007 116.723503,181.984619 120.581329,181.984619 
	C116.451553,174.055450 117.821503,166.797852 118.716934,159.117462 
M160.617249,180.252594 
	C161.190125,179.614609 162.308472,178.468277 162.256546,178.412567 
	C160.737762,176.782852 159.102356,175.261826 157.485611,173.723404 
	C157.005280,173.985107 156.524948,174.246811 156.044617,174.508499 
	C155.857971,176.547424 155.671326,178.586334 155.484695,180.625244 
	C156.984207,180.597244 158.483719,180.569229 160.617249,180.252594 
z"/>
<path fill="#E7A84E" opacity="1.000000" stroke="none" 
	d="
M561.877563,87.125916 
	C572.113098,104.323433 582.097534,121.266106 592.085999,138.206436 
	C598.881592,149.731628 605.747742,161.215790 612.463623,172.787170 
	C619.683472,185.226730 627.614136,197.352936 633.641052,210.354584 
	C638.579712,221.008652 635.941772,231.459885 624.801270,237.770782 
	C613.632202,244.097763 601.857483,238.517471 597.278625,229.985123 
	C594.625305,225.040894 592.078430,219.982590 588.834839,215.438812 
	C587.444885,213.491638 584.417358,211.616653 582.111572,211.589294 
	C558.458496,211.308594 534.800659,211.450806 511.144562,211.369247 
	C507.934845,211.358170 506.047913,212.458206 504.457672,215.374573 
	C501.451202,220.888275 497.862823,226.082764 494.566254,231.440689 
	C489.117004,240.297348 476.440216,243.041306 467.890411,237.640060 
	C457.329407,230.968277 454.347717,219.221542 460.434662,208.683578 
	C471.103455,190.213348 481.884003,171.807602 492.530670,153.324692 
	C504.319885,132.858307 516.293274,112.490120 527.643311,91.781471 
	C534.825928,78.676392 553.855774,77.826965 561.877563,87.125916 
M556.855042,157.538269 
	C556.689697,157.268234 556.456116,157.085190 555.916382,156.511887 
	C555.859314,156.163544 555.802185,155.815201 555.860962,154.698196 
	C554.652344,153.120087 553.443787,151.541962 551.964600,149.430786 
	C551.654602,148.924942 551.344604,148.419113 551.033691,147.258163 
	C550.470337,146.489853 549.907043,145.721527 549.038696,144.435623 
	C548.698792,143.946960 548.358826,143.458298 547.928833,142.306015 
	C546.932312,142.496277 545.935730,142.686523 544.961792,142.958237 
	C544.961792,142.958237 544.879578,142.938400 544.212341,143.075378 
	C543.222534,144.863708 542.232666,146.652054 541.287354,148.746490 
	C541.287354,148.746490 541.147339,149.022354 540.482056,149.280731 
	C540.048096,150.307114 539.614136,151.333496 539.090149,153.006210 
	C538.347595,154.325424 537.605042,155.644653 536.197205,157.088943 
	C535.217896,158.881149 534.238586,160.673370 533.267151,162.992691 
	C533.158752,163.325363 533.050415,163.658051 532.269287,164.088043 
	C531.891907,164.817734 531.514465,165.547409 530.970032,166.742447 
	C530.729614,167.347168 530.489258,167.951889 530.103943,169.452118 
	C531.527649,170.298233 532.930542,171.832443 534.378479,171.876068 
	C542.328064,172.115738 550.292969,172.130310 558.242188,171.884277 
	C560.054932,171.828201 561.826477,170.438538 563.616943,169.662659 
	C562.504028,167.759354 561.391113,165.856064 560.016907,163.452316 
	C559.954285,163.083694 559.891663,162.715073 559.906799,161.594955 
	C558.950623,160.389236 557.994446,159.183517 557.003235,158.003738 
	C557.003235,158.003738 557.017395,157.962845 556.855042,157.538269 
M537.015320,108.774048 
	C537.591370,109.203369 538.167480,109.632690 539.244934,110.459091 
	C539.803833,110.768730 540.362793,111.078362 541.100220,112.088646 
	C545.801392,115.871307 553.764954,114.077003 556.146118,108.211372 
	C556.554749,107.497635 556.963379,106.783897 558.015381,105.855331 
	C560.968140,100.164520 559.966614,95.745781 554.744690,92.604530 
	C554.506958,92.363243 554.269287,92.121964 553.962585,91.224556 
	C552.671204,90.723846 551.379761,90.223145 549.328613,89.829041 
	C547.367615,89.650711 545.406555,89.472389 542.652710,89.107536 
	C536.503662,90.007881 534.551147,95.092934 533.523987,99.842384 
	C533.004089,102.246040 535.606995,105.325096 536.901978,108.099373 
	C536.901978,108.099373 536.900024,108.203369 537.015320,108.774048 
M578.881714,194.633560 
	C578.252502,194.089188 577.623291,193.544815 576.660767,192.507416 
	C576.381775,191.773315 576.102783,191.039215 575.905151,189.537064 
	C574.795105,187.344543 573.421265,185.242935 572.627747,182.941284 
	C570.753723,177.505051 566.836365,176.718460 561.680725,176.883652 
	C551.094971,177.222855 540.490662,176.984222 529.893982,176.984604 
	C523.109070,176.984833 521.638977,178.258255 520.215881,185.710068 
	C520.215881,185.710068 520.065613,186.023514 519.343323,186.100723 
	C518.659546,187.554565 517.975708,189.008408 517.266968,190.986816 
	C517.160767,191.319427 517.054565,191.652039 516.248291,192.052750 
	C514.992432,193.710846 513.488953,195.237915 512.529053,197.052597 
	C510.050476,201.738602 510.794830,202.981506 516.024353,202.992218 
	C536.438599,203.034012 556.853394,203.052704 577.266907,202.919739 
	C578.787415,202.909836 580.299683,201.634521 581.815796,200.947449 
	C580.866821,199.302429 579.917786,197.657410 578.808044,195.699112 
	C578.808044,195.699112 578.793030,195.347321 578.881714,194.633560 
M553.768494,136.629593 
	C559.422546,146.385986 564.927368,156.234695 570.859375,165.819016 
	C572.012390,167.681900 574.741272,169.438995 576.895264,169.643539 
	C582.499939,170.175751 588.191101,169.899765 593.843384,169.764572 
	C595.497253,169.725006 597.136658,169.075989 599.088074,168.637726 
	C588.473206,149.975800 578.257629,131.963379 567.948120,114.004868 
	C567.233337,112.759781 565.819885,111.915794 564.360046,110.533760 
	C560.172913,117.678909 556.252075,124.004562 552.793396,130.573578 
	C552.085083,131.918884 553.108643,134.176041 553.768494,136.629593 
M517.476135,127.985237 
	C509.700897,141.449921 501.925629,154.914597 494.060394,168.535126 
	C494.830841,168.998322 495.371918,169.604019 495.921021,169.611374 
	C503.239655,169.709229 510.568085,169.921417 517.871948,169.600708 
	C519.440857,169.531830 521.457336,167.778214 522.356873,166.260773 
	C528.360168,156.134140 534.219666,145.917130 539.842163,135.575256 
	C540.689148,134.017365 540.765137,131.300095 539.979187,129.728622 
	C537.238525,124.249039 533.864258,119.090973 530.923401,113.705490 
	C528.768188,109.758736 527.213257,110.825966 525.469849,113.958733 
	C522.971863,118.447357 520.366211,122.876068 517.476135,127.985237 
M488.759369,199.990692 
	C490.311279,200.527863 491.825348,201.271240 493.422089,201.563980 
	C498.435791,202.483170 502.939423,199.934402 505.536591,194.901016 
	C507.930725,190.261154 507.126801,185.676254 503.227020,181.728897 
	C499.374298,177.829163 494.836487,177.053055 490.065033,179.477859 
	C481.665100,183.746613 480.841217,192.522888 488.759369,199.990692 
M609.213745,193.418991 
	C610.607605,187.119553 608.552979,182.310242 603.335327,179.659256 
	C598.147034,177.023209 593.228699,177.950851 589.377869,182.178268 
	C586.059326,185.821320 585.935974,190.230759 587.390686,194.330292 
	C588.983093,198.817871 592.841736,201.618652 597.687012,201.685135 
	C602.899780,201.756638 606.858765,199.158554 609.213745,193.418991 
M612.164734,230.839584 
	C613.157166,230.871582 614.186218,230.743896 615.135925,230.962006 
	C620.573242,232.210663 626.395569,225.648483 626.879089,220.503952 
	C627.372986,215.248398 623.377258,209.859741 617.876343,208.473480 
	C611.689453,206.914368 606.384155,209.924850 603.847229,216.434326 
	C601.788879,221.715897 604.657959,227.132294 612.164734,230.839584 
M483.129944,230.051620 
	C489.600800,226.880920 491.044861,219.895477 488.337677,214.502823 
	C485.965973,209.778442 480.725769,207.164886 475.492096,208.361862 
	C469.852966,209.651581 467.439819,213.229294 466.747528,218.801102 
	C465.805389,226.383530 473.414795,233.405792 483.129944,230.051620 
M544.192505,123.125221 
	C545.624146,123.240776 547.055725,123.356331 548.487366,123.471886 
	C548.389404,122.444962 548.291443,121.418037 548.193420,120.391129 
	C546.833862,121.057472 545.474304,121.723816 544.192505,123.125221 
z"/>
<path fill="#E8AA52" opacity="1.000000" stroke="none" 
	d="
M259.516479,102.016129 
	C259.495514,101.645195 259.474518,101.274261 259.745697,100.447273 
	C260.413818,98.923546 260.842621,97.871216 261.157562,96.785843 
	C264.272339,86.051804 272.760132,80.538017 283.880798,82.045631 
	C292.172272,83.169693 299.070496,92.200821 299.086945,102.091927 
	C299.120148,122.066994 299.057098,142.042343 299.145782,162.017090 
	C299.161163,165.483047 299.281036,169.060669 300.131927,172.387405 
	C301.898193,179.293030 304.111542,186.110565 310.745697,190.191559 
	C310.745697,190.191559 310.806122,190.195877 310.876099,190.552750 
	C314.866547,194.833282 318.906860,198.533356 324.983948,198.432922 
	C325.350098,198.434845 325.716278,198.436752 326.550720,198.750076 
	C344.781403,206.674057 371.240479,187.695068 368.742310,165.891693 
	C368.634888,143.674530 368.527466,121.457367 368.725281,98.632599 
	C369.709686,96.713287 370.496643,95.445404 371.050659,94.082794 
	C374.711273,85.079918 383.298157,80.406570 393.213989,82.077118 
	C401.007782,83.390160 408.053528,92.238663 408.067627,100.958138 
	C408.104584,123.764015 408.078522,146.570023 408.044220,169.375931 
	C408.040222,172.032715 408.153870,174.752197 407.656616,177.335510 
	C404.491638,193.776764 396.851807,207.546295 384.584625,219.261063 
	C363.798889,239.110779 332.601837,243.921265 306.813171,233.851486 
	C294.978516,229.230377 285.397919,221.504578 277.254486,211.829987 
	C269.396027,202.493927 264.104767,192.003616 261.970245,179.935989 
	C261.299774,176.145477 260.292847,172.414459 259.439911,168.656204 
	C259.445251,167.986694 259.450562,167.317169 259.694702,165.971741 
	C259.990814,144.824341 260.053345,124.352890 260.080475,103.881386 
	C260.081299,103.259880 259.712799,102.637894 259.516479,102.016129 
M311.364563,201.168442 
	C299.753937,193.439545 292.513306,182.910248 291.953156,168.753647 
	C291.374329,154.126526 291.483734,139.472488 291.258698,124.830742 
	C291.229767,122.950722 291.000092,121.073784 290.939667,120.243370 
	C284.663727,120.243370 279.042572,120.969177 273.713379,120.032982 
	C268.691650,119.150795 268.142426,118.776489 268.131592,123.866753 
	C268.100708,138.358032 267.811005,152.859497 268.254425,167.337616 
	C268.597870,178.552246 271.216919,189.446213 277.471161,198.952026 
	C291.316772,219.996002 310.446075,230.961349 336.227875,231.087601 
	C368.660217,231.246414 400.825470,201.586990 400.280243,167.050644 
	C400.051514,152.562988 400.267426,138.068481 400.250061,123.577118 
	C400.248352,122.151581 400.027466,120.726311 399.855560,118.669510 
	C397.901245,119.337830 396.557037,120.154366 395.187469,120.199417 
	C390.955048,120.338638 386.567871,120.851334 382.512299,119.969803 
	C377.720001,118.928146 377.111267,118.859558 377.098328,124.062927 
	C377.064392,137.721420 377.384460,151.390350 376.925690,165.033676 
	C376.734222,170.728180 375.807953,176.721863 373.702393,181.972656 
	C364.013489,206.134476 333.713745,215.486755 311.364563,201.168442 
M384.468872,90.350311 
	C383.364746,91.092407 382.163788,91.724472 381.173462,92.595886 
	C377.165161,96.122894 375.976624,101.439903 378.165527,105.625687 
	C380.998871,111.043732 386.337189,113.960983 391.131531,112.711189 
	C396.804260,111.232407 400.216217,106.929512 400.231201,101.235382 
	C400.252655,93.090530 395.264252,89.372192 384.468872,90.350311 
M289.546326,107.701767 
	C290.089020,104.829346 291.164276,101.936172 291.053345,99.089218 
	C290.873169,94.465988 287.728088,91.387299 283.548981,90.189857 
	C278.832245,88.838379 274.275452,89.801781 271.033051,94.001991 
	C268.229248,97.634079 266.861908,101.444916 269.357117,105.950363 
	C273.967987,114.275909 281.942902,115.289032 289.546326,107.701767 
z"/>
<path fill="#E3BE87" opacity="1.000000" stroke="none" 
	d="
M865.813049,222.039474 
	C865.648865,230.183441 860.317078,235.123947 854.133057,238.640625 
	C847.724426,242.285034 840.460022,242.040939 834.257202,237.738235 
	C826.989685,232.697006 822.837830,225.919159 823.046448,216.411682 
	C823.455505,197.762558 823.173889,179.098099 823.153320,160.440033 
	C823.151428,158.708191 822.971741,156.976532 822.799194,153.900650 
	C819.031311,157.466248 816.168884,160.059296 813.436646,162.782990 
	C806.268677,169.928513 799.011597,176.992996 792.061340,184.346237 
	C783.655579,193.239380 770.809082,194.496033 761.782043,186.247864 
	C751.957581,177.271133 742.711121,167.662247 733.200134,158.341736 
	C731.934875,157.101852 730.596130,155.936905 728.296143,153.822067 
	C728.082397,156.761902 727.853333,158.465012 727.850891,160.168442 
	C727.822449,179.826035 727.704224,199.484802 727.881531,219.140823 
	C727.961792,228.027924 720.512329,238.074036 709.990967,240.607574 
	C701.511292,242.649490 691.261292,237.423920 687.278931,228.289825 
	C685.618225,224.480515 684.481995,220.100769 684.458618,215.972733 
	C684.247253,178.657730 684.449402,141.340454 684.259583,104.025223 
	C684.209595,94.199974 689.266907,87.513817 696.344727,81.995659 
	C700.701477,78.598946 713.337769,79.476120 717.597839,83.455154 
	C727.380310,92.592255 736.864563,102.049973 746.417664,111.430725 
	C755.159668,120.014999 763.936584,128.568497 772.476624,137.350937 
	C775.213318,140.165359 777.161926,138.988785 779.177917,137.001541 
	C785.885498,130.389420 792.496521,123.679466 799.159851,117.022339 
	C809.452881,106.738838 819.797913,96.506973 830.048279,86.181168 
	C841.217285,74.929955 858.320740,79.199570 864.128601,93.277260 
	C864.675598,94.603233 865.274414,95.907837 865.478149,97.608208 
	C864.673462,98.009308 864.239929,98.024567 863.571167,97.799187 
	C861.721924,92.278671 858.726196,87.948807 854.027832,85.041672 
	C846.732117,80.527443 837.299561,82.286285 830.005432,89.533722 
	C813.582703,105.851440 797.240540,122.250229 780.859985,138.610382 
	C776.060730,143.403732 774.990540,143.422592 770.287781,138.728546 
	C753.313416,121.785149 736.386902,104.793579 719.362976,87.900208 
	C713.704590,82.285248 706.542358,81.263962 699.544495,83.959938 
	C692.242249,86.773132 687.914062,92.590057 687.973450,100.927971 
	C688.004272,105.258179 687.975342,109.588806 687.975586,113.919243 
	C687.977234,149.395523 688.211426,184.874161 687.853210,220.346786 
	C687.730530,232.490341 703.061951,242.987122 714.779602,235.884720 
	C721.874146,231.584549 724.969727,225.438385 724.967529,217.397583 
	C724.961731,196.411606 724.936951,175.425522 725.029724,154.439941 
	C725.036133,152.999802 725.951782,151.563705 726.444580,150.125717 
	C727.750366,150.692841 729.361816,150.946411 730.314819,151.875397 
	C740.278320,161.588150 750.325439,171.227219 759.968079,181.253372 
	C768.901917,190.542542 781.228943,191.174881 790.335388,182.153610 
	C800.274048,172.307938 810.093994,162.342102 820.075256,152.540237 
	C821.249573,151.387054 823.117004,150.939713 824.663147,150.165161 
	C825.119080,151.801392 825.964355,153.435837 825.971680,155.074066 
	C826.062256,175.226868 825.989075,195.380371 826.073120,215.533218 
	C826.086182,218.661530 826.122253,221.972015 827.096375,224.880478 
	C830.259521,234.324326 841.039795,241.633774 852.585754,236.428024 
	C859.229004,233.432739 860.389832,227.025925 864.160889,222.015106 
	C864.932068,222.029572 865.372559,222.034531 865.813049,222.039474 
z"/>
<path fill="#ECDABF" opacity="1.000000" stroke="none" 
	d="
M259.283936,169.130676 
	C260.292847,172.414459 261.299774,176.145477 261.970245,179.935989 
	C264.104767,192.003616 269.396027,202.493927 277.254486,211.829987 
	C285.397919,221.504578 294.978516,229.230377 306.813171,233.851486 
	C332.601837,243.921265 363.798889,239.110779 384.584625,219.261063 
	C396.851807,207.546295 404.491638,193.776764 407.656616,177.335510 
	C408.153870,174.752197 408.040222,172.032715 408.044220,169.375931 
	C408.078522,146.570023 408.104584,123.764015 408.067627,100.958138 
	C408.053528,92.238663 401.007782,83.390160 393.213989,82.077118 
	C383.298157,80.406570 374.711273,85.079918 371.050659,94.082794 
	C370.496643,95.445404 369.709686,96.713287 368.744995,98.192810 
	C367.634247,92.166634 373.763794,83.496254 380.145111,81.113960 
	C389.203857,77.732101 397.131622,79.374519 404.250122,85.680412 
	C409.376892,90.221939 411.447479,96.724525 411.639252,102.803642 
	C412.295013,123.594292 412.650452,144.458298 411.559998,165.212341 
	C411.040131,175.107025 408.837799,185.061554 404.745758,194.711655 
	C399.035950,208.176788 390.045685,218.600739 378.918610,227.070816 
	C370.255890,233.664978 360.284790,238.686386 349.007111,239.917740 
	C342.996582,240.574020 336.927307,242.100662 330.993927,241.682388 
	C324.256287,241.207413 317.651184,238.949051 310.970062,237.554153 
	C299.650055,235.190781 290.783020,228.285263 282.575043,220.953400 
	C274.416565,213.665741 268.133606,204.740768 263.733826,194.350082 
	C260.304596,186.251389 258.476807,178.264465 259.283936,169.130676 
z"/>
<path fill="#F4D9B1" opacity="1.000000" stroke="none" 
	d="
M354.701294,310.550781 
	C350.425110,311.791382 345.729126,312.461975 341.248077,313.834320 
	C329.996765,317.280060 318.520142,320.281799 307.724030,324.854919 
	C290.966064,331.953430 276.485382,342.765503 263.748138,355.774811 
	C250.902664,368.894623 242.240280,384.654694 236.677765,401.949707 
	C232.132126,416.083008 229.856049,430.803711 230.068954,445.704346 
	C230.471375,473.869995 238.593964,499.427551 256.210144,521.804871 
	C268.061523,536.859253 282.080170,549.459778 298.768921,558.620544 
	C308.175018,563.783752 318.700043,566.906738 328.711945,570.971069 
	C329.741455,571.389038 330.708679,571.960510 331.858215,572.813354 
	C330.595703,573.351196 329.018738,574.039185 327.788452,573.645020 
	C313.580566,569.093445 299.837341,563.267334 287.679962,554.631470 
	C266.683929,539.717285 249.498749,521.171936 238.543045,497.597992 
	C231.750107,482.981171 228.334427,467.227325 227.344040,451.248108 
	C226.769424,441.977325 228.438248,432.524384 229.524170,423.203125 
	C231.538406,405.913483 237.383270,389.825317 246.251831,374.934357 
	C253.971817,361.971954 264.115845,351.030670 275.959412,341.655609 
	C287.792145,332.289062 300.513702,324.235901 314.593628,318.957367 
	C327.328522,314.183167 340.184418,308.846710 354.701294,310.550781 
z"/>
<path fill="#ECDABF" opacity="1.000000" stroke="none" 
	d="
M310.794403,189.825623 
	C304.111542,186.110565 301.898193,179.293030 300.131927,172.387405 
	C299.281036,169.060669 299.161163,165.483047 299.145782,162.017090 
	C299.057098,142.042343 299.120148,122.066994 299.086945,102.091927 
	C299.070496,92.200821 292.172272,83.169693 283.880798,82.045631 
	C272.760132,80.538017 264.272339,86.051804 261.157562,96.785843 
	C260.842621,97.871216 260.413818,98.923546 259.739746,100.168678 
	C258.228058,91.907967 264.410126,82.883911 272.681030,81.020355 
	C284.703735,78.311455 293.531494,81.032242 298.401123,90.157112 
	C300.836609,94.720840 302.581024,100.227448 302.700012,105.352585 
	C303.178894,125.979881 303.289673,146.635681 302.707611,167.257568 
	C302.482605,175.229645 305.951141,181.132446 309.713562,187.309265 
	C310.133911,187.999374 310.468658,188.741623 310.794403,189.825623 
z"/>
<path fill="#F4D9B1" opacity="1.000000" stroke="none" 
	d="
M333.929352,573.526611 
	C344.688965,573.798645 355.591156,574.999573 366.479156,574.882507 
	C382.753754,574.707520 398.797699,571.681396 413.357727,564.431030 
	C426.096954,558.087341 437.902924,549.864624 450.095703,542.430115 
	C458.657532,537.209534 467.091095,531.770447 475.775146,526.764160 
	C477.918976,525.528259 480.814941,525.597107 483.803711,525.147583 
	C480.455109,526.982361 476.432373,528.360718 472.926788,530.562439 
	C463.962280,536.192749 455.141693,542.064209 446.420502,548.067200 
	C430.556976,558.986389 413.834961,568.459656 395.245789,573.497314 
	C376.679779,578.528625 357.515381,577.959595 338.475800,575.845276 
	C336.951263,575.675903 335.533173,574.548157 333.929352,573.526611 
z"/>
<path fill="#BCA88B" opacity="1.000000" stroke="none" 
	d="
M865.878784,221.569641 
	C865.372559,222.034531 864.932068,222.029572 864.193970,221.546097 
	C863.620789,214.699356 863.345154,208.331146 863.074463,201.528015 
	C863.076111,173.741272 863.072754,146.389420 863.074585,118.590759 
	C863.321960,111.442566 863.564148,104.741196 863.806335,98.039818 
	C864.239929,98.024567 864.673462,98.009308 865.431091,97.984299 
	C865.838013,107.940132 865.987183,117.905685 865.991577,127.871300 
	C866.005249,158.947449 865.964233,190.023636 865.878784,221.569641 
z"/>
<path fill="#F4D9B1" opacity="1.000000" stroke="none" 
	d="
M489.898193,525.548584 
	C498.268585,524.153259 504.177216,529.752075 510.192810,534.013123 
	C522.819275,542.956787 535.425659,551.634766 550.816711,555.179993 
	C551.624939,555.366211 552.233887,556.417603 553.020081,557.407837 
	C545.927185,558.530151 540.005798,554.604614 534.330994,551.539429 
	C523.771057,545.835571 514.042725,538.613098 503.760315,532.364807 
	C499.458801,529.750916 494.626770,528.010010 489.898193,525.548584 
z"/>
<path fill="#ECDABF" opacity="1.000000" stroke="none" 
	d="
M368.408875,166.013397 
	C371.240479,187.695068 344.781403,206.674057 326.825317,198.754822 
	C329.434631,198.311234 332.269409,197.835663 335.035309,198.094818 
	C348.378021,199.345078 360.716400,187.436295 364.534546,178.667847 
	C366.251862,174.724091 366.927307,170.326660 368.408875,166.013397 
z"/>
<path fill="#ECDABF" opacity="1.000000" stroke="none" 
	d="
M259.132324,102.227997 
	C259.712799,102.637894 260.081299,103.259880 260.080475,103.881386 
	C260.053345,124.352890 259.990814,144.824341 259.724304,165.637756 
	C259.048187,165.016876 258.176727,164.055191 258.173950,163.091019 
	C258.117218,143.325073 258.155884,123.558846 258.205902,103.792747 
	C258.207031,103.341339 258.559540,102.890808 259.132324,102.227997 
z"/>
<path fill="#ECDABF" opacity="1.000000" stroke="none" 
	d="
M324.876160,198.066101 
	C318.906860,198.533356 314.866547,194.833282 310.877655,190.582977 
	C315.462280,192.737335 320.115326,195.218323 324.876160,198.066101 
z"/>
<path fill="#EBB468" opacity="1.000000" stroke="none" 
	d="
M479.962524,379.028229 
	C479.993256,379.447327 480.023987,379.866425 480.070801,380.948273 
	C481.042297,382.418762 481.997772,383.226532 482.953217,384.034271 
	C482.953217,384.034271 482.992340,384.501678 483.037048,385.061707 
	C483.722534,386.079956 484.363342,386.538147 485.004150,386.996368 
	C485.004150,386.996368 485.056274,387.454926 485.079651,388.017273 
	C485.738068,389.050781 486.373108,389.521942 487.008118,389.993134 
	C487.280823,390.475586 487.553528,390.958008 487.950073,392.040039 
	C489.039215,393.434113 490.004517,394.228607 490.969818,395.023071 
	C494.113373,398.580536 497.256958,402.138000 500.732849,406.192139 
	C502.072723,407.427765 503.080292,408.166687 504.087860,408.905579 
	C504.873871,409.175049 505.659851,409.444550 506.847168,410.122375 
	C508.165100,410.698456 509.081696,410.866180 509.998291,411.033936 
	C510.730255,411.050812 511.462189,411.067688 512.641418,411.432037 
	C514.391663,411.864410 515.694702,411.949280 516.997681,412.034180 
	C518.387878,412.027893 519.778076,412.021606 521.817139,412.288879 
	C523.978699,412.346008 525.491394,412.129547 527.004089,411.913086 
	C528.354736,411.898956 529.705322,411.884796 531.831543,411.876038 
	C534.088318,410.946930 535.569519,410.012451 537.050659,409.077942 
	C537.483765,409.058472 537.916809,409.039032 538.839355,409.238892 
	C539.911621,409.014099 540.494385,408.570038 541.077148,408.125977 
	C541.505493,408.101379 541.933838,408.076813 542.882874,408.298584 
	C544.602356,408.001678 545.801147,407.458405 547.000000,406.915161 
	C547.719055,406.904327 548.438171,406.893463 549.928589,406.874939 
	C554.801453,405.885834 558.902893,404.904388 563.004333,403.922943 
	C567.690674,403.925476 572.377075,403.928009 577.773071,404.222809 
	C582.321838,405.012726 586.160889,405.510376 590.000000,406.008057 
	C592.747559,406.998199 595.495117,407.988312 598.661133,409.318726 
	C599.741394,410.083984 600.403076,410.509003 601.064819,410.934021 
	C604.230042,412.453522 607.395264,413.973022 610.812012,416.089600 
	C611.718933,417.115265 612.374329,417.543854 613.029724,417.972412 
	C619.353027,424.725372 625.676392,431.478333 632.036072,438.933044 
	C633.018494,440.443268 633.964478,441.251678 634.910522,442.060120 
	C636.620544,445.767365 638.330627,449.474609 640.067505,453.884644 
	C640.728027,455.059326 641.361755,455.531281 641.995361,456.003204 
	C642.038818,457.031311 642.082214,458.059418 642.120972,459.824066 
	C643.048401,461.393433 643.980469,462.226257 644.912476,463.059113 
	C644.937805,463.794220 644.963196,464.529327 644.765991,465.796326 
	C644.984619,466.912292 645.425842,467.496338 645.867065,468.080383 
	C645.899719,469.126404 645.932312,470.172424 645.673340,471.908325 
	C645.575928,478.731171 645.770203,484.864075 645.964417,490.997009 
	C645.946838,492.044312 645.929260,493.091614 645.583374,494.601440 
	C645.159485,496.041870 645.063782,497.019806 644.968018,497.997711 
	C644.960632,498.430237 644.953247,498.862793 644.579834,499.676025 
	C643.530212,501.414398 642.846558,502.772064 642.162903,504.129700 
	C642.131958,504.846924 642.101013,505.564117 641.761230,506.774475 
	C640.995667,508.204437 640.539001,509.141235 640.082275,510.078033 
	C640.047485,510.797943 640.012634,511.517883 639.621826,512.645508 
	C638.549133,514.069885 637.832581,515.086670 637.116028,516.103394 
	C637.089783,516.524353 637.063599,516.945251 636.693298,517.722290 
	C635.916321,518.736084 635.483398,519.393799 635.050476,520.051514 
	C633.142395,522.834778 631.234375,525.618042 628.822632,528.749756 
	C627.863770,530.047852 627.408569,530.997437 626.953369,531.947083 
	C624.396118,534.420349 621.838867,536.893616 618.760132,539.670349 
	C617.493286,540.650024 616.747864,541.326233 616.002441,542.002441 
	C612.610229,543.679565 609.217957,545.356689 605.447266,547.053711 
	C582.683899,546.288086 563.007324,538.879150 545.685669,524.380249 
	C525.814575,507.747375 515.898132,486.283020 511.799438,461.255463 
	C510.668671,454.350830 508.145966,447.379944 504.842346,441.198029 
	C500.474121,433.023865 492.079559,431.069580 483.350281,429.873352 
	C474.237640,428.624542 464.956909,427.287323 456.297943,424.364471 
	C444.563629,420.403534 436.313507,411.936096 430.947174,400.551666 
	C424.849854,387.616455 421.559113,374.138153 425.245483,360.228912 
	C427.217438,352.788361 431.893158,346.024384 435.694122,339.145996 
	C436.364960,337.931946 438.740479,337.659882 440.723083,336.899597 
	C441.946259,337.057556 442.775177,337.268768 443.841248,338.060516 
	C444.732422,339.081238 445.386353,339.521423 446.040314,339.961609 
	C448.078217,341.558289 450.241638,343.019653 452.132965,344.774292 
	C461.819519,353.760620 470.106415,363.907684 477.046600,375.892761 
	C478.051697,377.407654 479.007111,378.217957 479.962524,379.028229 
z"/>
<path fill="#F0C488" opacity="1.000000" stroke="none" 
	d="
M646.267029,490.729858 
	C645.770203,484.864075 645.575928,478.731171 645.671265,472.300964 
	C648.698242,478.073090 647.351013,484.277222 646.267029,490.729858 
z"/>
<path fill="#F0C488" opacity="1.000000" stroke="none" 
	d="
M562.742371,403.656311 
	C558.902893,404.904388 554.801453,405.885834 550.287842,406.857849 
	C553.260437,402.718719 558.129578,403.998718 562.742371,403.656311 
z"/>
<path fill="#F0C488" opacity="1.000000" stroke="none" 
	d="
M589.767090,405.724274 
	C586.160889,405.510376 582.321838,405.012726 578.238708,404.213867 
	C581.841187,404.421936 585.687744,404.931213 589.767090,405.724274 
z"/>
<path fill="#F0C488" opacity="1.000000" stroke="none" 
	d="
M526.762817,411.659851 
	C525.491394,412.129547 523.978699,412.346008 522.234253,412.293823 
	C523.508789,411.818970 525.015137,411.612793 526.762817,411.659851 
z"/>
<path fill="#F0C488" opacity="1.000000" stroke="none" 
	d="
M536.681763,409.050598 
	C535.569519,410.012451 534.088318,410.946930 532.236206,411.856659 
	C533.347900,410.895691 534.830444,409.959473 536.681763,409.050598 
z"/>
<path fill="#F0C488" opacity="1.000000" stroke="none" 
	d="
M546.794922,406.673218 
	C545.801147,407.458405 544.602356,408.001678 543.204712,408.294678 
	C544.200439,407.506744 545.395142,406.969025 546.794922,406.673218 
z"/>
<path fill="#F0C488" opacity="1.000000" stroke="none" 
	d="
M642.483459,504.040222 
	C642.846558,502.772064 643.530212,501.414398 644.564941,500.000153 
	C644.212036,501.279266 643.507996,502.615021 642.483459,504.040222 
z"/>
<path fill="#F0C488" opacity="1.000000" stroke="none" 
	d="
M516.768188,411.751526 
	C515.694702,411.949280 514.391663,411.864410 513.006897,411.453979 
	C514.129639,411.241943 515.334167,411.355408 516.768188,411.751526 
z"/>
<path fill="#F0C488" opacity="1.000000" stroke="none" 
	d="
M644.916382,462.717590 
	C643.980469,462.226257 643.048401,461.393433 642.145996,460.209045 
	C643.090515,460.696991 644.005371,461.536499 644.916382,462.717590 
z"/>
<path fill="#F0C488" opacity="1.000000" stroke="none" 
	d="
M634.910583,441.715057 
	C633.964478,441.251678 633.018494,440.443268 632.061890,439.291290 
	C633.004395,439.755157 633.957520,440.562561 634.910583,441.715057 
z"/>
<path fill="#F0C488" opacity="1.000000" stroke="none" 
	d="
M640.396973,510.030579 
	C640.539001,509.141235 640.995667,508.204437 641.756470,507.133484 
	C641.610901,507.993927 641.161316,508.988525 640.396973,510.030579 
z"/>
<path fill="#F0C488" opacity="1.000000" stroke="none" 
	d="
M637.445435,516.039062 
	C637.832581,515.086670 638.549133,514.069885 639.602783,513.005371 
	C639.218140,513.963257 638.496460,514.968994 637.445435,516.039062 
z"/>
<path fill="#F0C488" opacity="1.000000" stroke="none" 
	d="
M504.029846,408.574768 
	C503.080292,408.166687 502.072723,407.427765 501.031433,406.345642 
	C501.989044,406.749603 502.980408,407.496765 504.029846,408.574768 
z"/>
<path fill="#F0C488" opacity="1.000000" stroke="none" 
	d="
M490.952271,394.681274 
	C490.004517,394.228607 489.039215,393.434113 488.061951,392.294250 
	C489.011566,392.745728 489.973145,393.542603 490.952271,394.681274 
z"/>
<path fill="#F0C488" opacity="1.000000" stroke="none" 
	d="
M482.941833,383.692535 
	C481.997772,383.226532 481.042297,382.418762 480.088867,381.262939 
	C481.037384,381.726837 481.983917,382.538818 482.941833,383.692535 
z"/>
<path fill="#F0C488" opacity="1.000000" stroke="none" 
	d="
M479.947876,378.688110 
	C479.007111,378.217957 478.051697,377.407654 477.106262,376.246765 
	C478.055206,376.713440 478.994202,377.530701 479.947876,378.688110 
z"/>
<path fill="#F0C488" opacity="1.000000" stroke="none" 
	d="
M645.241577,497.792725 
	C645.063782,497.019806 645.159485,496.041870 645.562866,494.993713 
	C645.752014,495.811554 645.633545,496.699646 645.241577,497.792725 
z"/>
<path fill="#F0C488" opacity="1.000000" stroke="none" 
	d="
M627.255005,531.829773 
	C627.408569,530.997437 627.863770,530.047852 628.662476,529.051575 
	C628.522949,529.907410 628.039795,530.809937 627.255005,531.829773 
z"/>
<path fill="#F0C488" opacity="1.000000" stroke="none" 
	d="
M616.325439,541.981689 
	C616.747864,541.326233 617.493286,540.650024 618.586060,539.958435 
	C618.171814,540.615723 617.410156,541.288391 616.325439,541.981689 
z"/>
<path fill="#F0C488" opacity="1.000000" stroke="none" 
	d="
M509.802856,410.761200 
	C509.081696,410.866180 508.165100,410.698456 507.135681,410.248108 
	C507.884399,410.139832 508.745911,410.314148 509.802856,410.761200 
z"/>
<path fill="#F0C488" opacity="1.000000" stroke="none" 
	d="
M635.368774,520.001099 
	C635.483398,519.393799 635.916321,518.736084 636.673401,518.037964 
	C636.560730,518.648621 636.123901,519.299622 635.368774,520.001099 
z"/>
<path fill="#F0C488" opacity="1.000000" stroke="none" 
	d="
M645.893127,467.773560 
	C645.425842,467.496338 644.984619,466.912292 644.771118,466.164124 
	C645.305664,466.488892 645.612427,466.977783 645.893127,467.773560 
z"/>
<path fill="#F0C488" opacity="1.000000" stroke="none" 
	d="
M641.968140,455.681824 
	C641.361755,455.531281 640.728027,455.059326 640.085815,454.256592 
	C640.698425,454.403992 641.319580,454.882202 641.968140,455.681824 
z"/>
<path fill="#F0C488" opacity="1.000000" stroke="none" 
	d="
M612.983704,417.651550 
	C612.374329,417.543854 611.718933,417.115265 611.012817,416.369995 
	C611.620605,416.479095 612.279114,416.904907 612.983704,417.651550 
z"/>
<path fill="#F0C488" opacity="1.000000" stroke="none" 
	d="
M601.009644,410.617035 
	C600.403076,410.509003 599.741394,410.083984 599.035156,409.335602 
	C599.645203,409.441498 600.299866,409.870789 601.009644,410.617035 
z"/>
<path fill="#F0C488" opacity="1.000000" stroke="none" 
	d="
M540.770264,408.101257 
	C540.494385,408.570038 539.911621,409.014099 539.164429,409.230347 
	C539.487793,408.693848 539.975647,408.385193 540.770264,408.101257 
z"/>
<path fill="#F0C488" opacity="1.000000" stroke="none" 
	d="
M486.972595,389.675598 
	C486.373108,389.521942 485.738068,389.050781 485.096924,388.247375 
	C485.706238,388.396149 486.321655,388.877106 486.972595,389.675598 
z"/>
<path fill="#F0C488" opacity="1.000000" stroke="none" 
	d="
M484.968628,386.675232 
	C484.363342,386.538147 483.722534,386.079956 483.055054,385.295532 
	C483.663300,385.430908 484.298187,385.892517 484.968628,386.675232 
z"/>
<path fill="#F0C488" opacity="1.000000" stroke="none" 
	d="
M445.991028,339.643982 
	C445.386353,339.521423 444.732422,339.081238 444.043182,338.315918 
	C444.652527,338.435974 445.297150,338.881165 445.991028,339.643982 
z"/>
<path fill="#FBF9F5" opacity="1.000000" stroke="none" 
	d="
M192.769135,126.729210 
	C194.793945,143.620117 190.821594,158.137039 178.608475,169.854614 
	C172.434814,175.777786 171.240341,175.714417 165.286331,169.825287 
	C162.447556,167.017441 159.619110,164.199112 156.776184,161.395477 
	C154.682449,159.330704 154.226089,157.755798 157.481033,156.164490 
	C166.000275,151.999573 172.221344,140.929855 170.520813,133.440247 
	C167.640701,120.755463 159.254395,113.150940 147.744812,113.037598 
	C136.428513,112.926155 125.104156,112.787102 113.795929,113.106361 
	C109.023842,113.241089 107.856735,111.452377 107.834648,107.033813 
	C107.807060,101.513741 106.956398,95.997787 106.404449,89.849380 
	C110.517876,89.849380 114.802345,89.849373 119.086815,89.849380 
	C127.574852,89.849403 136.093704,90.316826 144.544983,89.759499 
	C167.450317,88.248993 187.593643,105.001862 191.762589,123.450348 
	C191.981674,124.419830 192.364594,125.352280 192.769135,126.729210 
z"/>
<path fill="#FBFAF9" opacity="1.000000" stroke="none" 
	d="
M155.807190,147.859848 
	C155.430618,147.975128 155.054031,148.090408 153.993347,148.199768 
	C139.387802,148.496719 125.466774,148.861832 111.543877,148.959564 
	C110.635147,148.965942 108.960358,146.949829 108.918724,145.827148 
	C108.666283,139.020386 108.847809,132.198944 108.747444,125.384422 
	C108.709358,122.797760 109.750229,121.845520 112.296211,121.886963 
	C118.279312,121.984337 124.266724,121.994339 130.249527,121.884270 
	C136.846130,121.762909 143.439545,121.467880 150.034348,121.248505 
	C150.395462,121.273865 150.756592,121.299225 151.527985,121.621628 
	C152.502655,122.518539 152.989090,123.225334 153.643204,123.702118 
	C162.404648,130.088318 163.464279,136.446625 157.234161,145.297165 
	C156.674500,146.092255 156.278961,147.002869 155.807190,147.859848 
z"/>
<path fill="#F9F4ED" opacity="1.000000" stroke="none" 
	d="
M78.561203,152.667572 
	C77.503113,152.301544 76.242477,151.781097 76.236641,151.246964 
	C76.120880,140.654785 76.150345,130.061020 76.150345,119.576073 
	C83.654030,120.151955 90.647560,120.556824 97.590790,121.383980 
	C98.485611,121.490585 99.730629,123.766495 99.772171,125.070686 
	C99.989098,131.880142 99.854668,138.700348 99.873672,145.516724 
	C99.882797,148.792572 98.469612,150.034729 95.039383,150.256592 
	C89.647942,150.605331 84.305893,151.717728 78.561203,152.667572 
z"/>
<path fill="#F8F3ED" opacity="1.000000" stroke="none" 
	d="
M171.706360,188.108398 
	C175.474823,191.956192 178.998657,195.532654 183.046143,199.640610 
	C175.977859,202.478729 171.122971,206.097183 168.455200,212.291931 
	C168.101242,213.113861 164.537827,213.723297 163.762955,213.012192 
	C156.553955,206.396286 149.630142,199.469604 141.827240,191.855972 
	C144.019440,191.041519 145.087570,190.465912 146.223846,190.251755 
	C153.186676,188.939514 160.148544,187.600266 167.152359,186.546738 
	C168.493774,186.344955 170.020493,187.375214 171.706360,188.108398 
z"/>
<path fill="#F8F3ED" opacity="1.000000" stroke="none" 
	d="
M76.935509,174.680481 
	C75.110649,167.382614 77.789879,161.593063 83.727615,159.275726 
	C88.914902,157.251282 95.215790,159.717819 98.152397,164.922409 
	C100.780968,169.581070 99.516701,175.789139 95.249580,179.176453 
	C90.342957,183.071411 84.488136,182.856705 79.905945,178.508011 
	C78.836884,177.493408 78.034988,176.197281 76.935509,174.680481 
z"/>
<path fill="#F8F3ED" opacity="1.000000" stroke="none" 
	d="
M76.130524,217.515427 
	C80.320282,207.682709 89.962708,205.052689 96.218025,211.655853 
	C99.947792,215.593033 100.601425,220.179031 98.087540,224.772751 
	C95.297180,229.871658 91.010040,231.893341 85.204254,230.848053 
	C80.916763,230.076126 76.672440,225.499359 76.053711,220.887207 
	C75.923141,219.913803 76.058762,218.904709 76.130524,217.515427 
z"/>
<path fill="#F8F3ED" opacity="1.000000" stroke="none" 
	d="
M76.317955,104.199097 
	C74.707298,97.808601 78.995018,91.831833 84.260429,90.102135 
	C89.963577,88.228615 95.353477,90.831718 98.217667,96.486465 
	C100.781273,101.547775 99.147400,107.601891 94.359245,110.783310 
	C89.251862,114.176865 83.083755,113.371391 79.190750,108.702438 
	C78.138939,107.440987 77.353859,105.957123 76.317955,104.199097 
z"/>
<path fill="#F9F4ED" opacity="1.000000" stroke="none" 
	d="
M126.119431,173.380554 
	C125.071945,167.246353 126.928223,162.223053 132.072540,160.003357 
	C135.142365,158.678772 139.715561,158.992310 142.934570,160.273682 
	C148.342300,162.426285 149.657867,167.351273 148.042526,174.227280 
	C147.127258,178.123276 142.697067,181.547729 138.038422,181.960266 
	C133.412186,182.369934 128.519852,178.997925 126.119431,173.380554 
z"/>
<path fill="#F8F3ED" opacity="1.000000" stroke="none" 
	d="
M186.198944,208.086380 
	C191.976501,208.136551 196.101822,210.541214 197.688934,215.637985 
	C199.113617,220.213181 198.602615,224.721893 194.448578,228.296936 
	C190.511169,231.685532 186.184097,231.757141 181.886276,230.038040 
	C177.070389,228.111725 174.940994,223.770554 175.215759,218.846085 
	C175.481308,214.086456 178.283386,210.595856 182.927139,208.895065 
	C183.856110,208.554825 184.840195,208.365097 186.198944,208.086380 
z"/>
<path fill="#F3ECE1" opacity="1.000000" stroke="none" 
	d="
M76.489166,188.705139 
	C83.727119,188.987778 90.871513,188.943771 97.642799,190.511383 
	C102.122993,191.548584 99.638359,196.484650 99.711708,199.614746 
	C99.782227,202.624786 97.337204,201.526154 95.298836,201.433258 
	C89.186623,201.154678 83.053596,201.332993 76.237053,201.332993 
	C76.237053,197.494980 76.237053,193.279190 76.489166,188.705139 
z"/>
<path fill="#F8F3ED" opacity="1.000000" stroke="none" 
	d="
M119.071465,159.328583 
	C117.821503,166.797852 116.451553,174.055450 120.581329,181.984619 
	C116.723503,181.984619 113.890686,182.348007 111.231743,181.825897 
	C109.969299,181.577988 108.184853,179.695847 108.104889,178.459137 
	C107.752098,173.002686 107.750084,167.500839 108.073456,162.042221 
	C108.139641,160.925049 110.029602,159.238907 111.291756,159.015045 
	C113.685448,158.590424 116.233185,159.034348 119.071465,159.328583 
z"/>
<path fill="#E3BE87" opacity="1.000000" stroke="none" 
	d="
M149.776566,120.902252 
	C143.439545,121.467880 136.846130,121.762909 130.249527,121.884270 
	C124.266724,121.994339 118.279312,121.984337 112.296211,121.886963 
	C109.750229,121.845520 108.709358,122.797760 108.747444,125.384422 
	C108.847809,132.198944 108.666283,139.020386 108.918724,145.827148 
	C108.960358,146.949829 110.635147,148.965942 111.543877,148.959564 
	C125.466774,148.861832 139.387802,148.496719 153.725983,148.326721 
	C152.560425,149.319687 150.989685,150.900482 149.394119,150.925949 
	C136.600754,151.130234 123.802139,150.976547 111.006500,151.088486 
	C107.983589,151.114929 106.897057,150.051666 106.955574,147.029556 
	C107.100327,139.553833 106.819916,132.065460 107.147156,124.601311 
	C107.215866,123.033798 109.145432,120.236290 110.240021,120.225189 
	C123.330467,120.092430 136.425186,120.379082 149.776566,120.902252 
z"/>
<path fill="#E3BE87" opacity="1.000000" stroke="none" 
	d="
M156.174530,147.888489 
	C156.278961,147.002869 156.674500,146.092255 157.234161,145.297165 
	C163.464279,136.446625 162.404648,130.088318 153.643204,123.702118 
	C152.989090,123.225334 152.502655,122.518539 151.799561,121.618965 
	C158.810425,121.325127 164.181046,131.221542 162.722900,137.247040 
	C161.795822,141.077988 158.677551,144.378677 156.174530,147.888489 
z"/>
<path fill="#ECDABF" opacity="1.000000" stroke="none" 
	d="
M160.300232,180.396912 
	C158.483719,180.569229 156.984207,180.597244 155.484695,180.625244 
	C155.671326,178.586334 155.857971,176.547424 156.044617,174.508499 
	C156.524948,174.246811 157.005280,173.985107 157.485611,173.723404 
	C159.102356,175.261826 160.737762,176.782852 162.256546,178.412567 
	C162.308472,178.468277 161.190125,179.614609 160.300232,180.396912 
z"/>
<path fill="#FAF7F2" opacity="1.000000" stroke="none" 
	d="
M553.551147,136.321228 
	C553.108643,134.176041 552.085083,131.918884 552.793396,130.573578 
	C556.252075,124.004562 560.172913,117.678909 564.360046,110.533760 
	C565.819885,111.915794 567.233337,112.759781 567.948120,114.004868 
	C578.257629,131.963379 588.473206,149.975800 599.088074,168.637726 
	C597.136658,169.075989 595.497253,169.725006 593.843384,169.764572 
	C588.191101,169.899765 582.499939,170.175751 576.895264,169.643539 
	C574.741272,169.438995 572.012390,167.681900 570.859375,165.819016 
	C564.927368,156.234695 559.422546,146.385986 553.551147,136.321228 
z"/>
<path fill="#FAF7F2" opacity="1.000000" stroke="none" 
	d="
M517.641357,127.657791 
	C520.366211,122.876068 522.971863,118.447357 525.469849,113.958733 
	C527.213257,110.825966 528.768188,109.758736 530.923401,113.705490 
	C533.864258,119.090973 537.238525,124.249039 539.979187,129.728622 
	C540.765137,131.300095 540.689148,134.017365 539.842163,135.575256 
	C534.219666,145.917130 528.360168,156.134140 522.356873,166.260773 
	C521.457336,167.778214 519.440857,169.531830 517.871948,169.600708 
	C510.568085,169.921417 503.239655,169.709229 495.921021,169.611374 
	C495.371918,169.604019 494.830841,168.998322 494.060394,168.535126 
	C501.925629,154.914597 509.700897,141.449921 517.641357,127.657791 
z"/>
<path fill="#FAF7F2" opacity="1.000000" stroke="none" 
	d="
M520.065552,186.023499 
	C520.065613,186.023514 520.215881,185.710068 520.549072,185.411377 
	C523.528198,182.051865 525.018188,178.758423 530.901611,179.367859 
	C541.910217,180.508179 553.144043,179.868729 564.256287,179.360336 
	C567.363037,179.218201 568.789185,180.066803 570.240662,182.357147 
	C571.971863,185.088745 573.951660,187.662796 575.823730,190.305115 
	C576.102783,191.039215 576.381775,191.773315 576.830566,193.079315 
	C577.597900,194.216599 578.195496,194.781967 578.793030,195.347321 
	C578.793030,195.347321 578.808044,195.699112 578.903076,196.248291 
	C579.308655,198.005341 579.619202,199.213226 579.968506,200.571991 
	C557.425171,200.571991 535.375183,200.571991 512.932007,200.571991 
	C514.467529,197.288910 515.707947,194.636780 516.948364,191.984650 
	C517.054565,191.652039 517.160767,191.319427 517.602661,190.581604 
	C518.647400,188.792099 519.356506,187.407791 520.065552,186.023499 
z"/>
<path fill="#F8F3ED" opacity="1.000000" stroke="none" 
	d="
M551.034607,147.913269 
	C551.344604,148.419113 551.654602,148.924942 552.055298,150.040237 
	C553.345703,152.255417 554.545410,153.861145 555.745117,155.466858 
	C555.802185,155.815201 555.859314,156.163544 556.063965,156.993011 
	C556.388550,157.787857 556.657227,157.950760 557.017395,157.962845 
	C557.017395,157.962845 557.003235,158.003738 557.025391,158.339539 
	C557.974670,159.899063 558.901855,161.122757 559.829102,162.346466 
	C559.891663,162.715073 559.954285,163.083694 560.104187,164.068024 
	C560.711426,165.961990 561.231384,167.240280 561.766846,168.556610 
	C550.996948,168.556610 540.622925,168.556610 530.248840,168.556610 
	C530.489258,167.951889 530.729614,167.347168 531.367798,166.416824 
	C532.157776,165.391052 532.549927,164.690903 532.942078,163.990753 
	C533.050415,163.658051 533.158752,163.325363 533.576233,162.582611 
	C534.877686,160.436310 535.870056,158.700073 536.862427,156.963867 
	C537.605042,155.644653 538.347595,154.325424 539.466675,152.553741 
	C540.277832,151.074951 540.712585,150.048645 541.147339,149.022339 
	C541.147339,149.022354 541.287354,148.746490 541.585083,148.458313 
	C542.881653,146.426224 543.880615,144.682297 544.879578,142.938385 
	C544.879578,142.938400 544.961792,142.958237 545.333435,142.979767 
	C546.476379,142.990753 547.247620,142.980194 548.018921,142.969650 
	C548.358826,143.458298 548.698792,143.946960 549.119690,145.007874 
	C549.812012,146.357834 550.423340,147.135559 551.034607,147.913269 
z"/>
<path fill="#F8F3ED" opacity="1.000000" stroke="none" 
	d="
M488.472321,199.746017 
	C480.841217,192.522888 481.665100,183.746613 490.065033,179.477859 
	C494.836487,177.053055 499.374298,177.829163 503.227020,181.728897 
	C507.126801,185.676254 507.930725,190.261154 505.536591,194.901016 
	C502.939423,199.934402 498.435791,202.483170 493.422089,201.563980 
	C491.825348,201.271240 490.311279,200.527863 488.472321,199.746017 
z"/>
<path fill="#F8F3ED" opacity="1.000000" stroke="none" 
	d="
M609.061523,193.773438 
	C606.858765,199.158554 602.899780,201.756638 597.687012,201.685135 
	C592.841736,201.618652 588.983093,198.817871 587.390686,194.330292 
	C585.935974,190.230759 586.059326,185.821320 589.377869,182.178268 
	C593.228699,177.950851 598.147034,177.023209 603.335327,179.659256 
	C608.552979,182.310242 610.607605,187.119553 609.061523,193.773438 
z"/>
<path fill="#F9F4ED" opacity="1.000000" stroke="none" 
	d="
M611.770386,230.743576 
	C604.657959,227.132294 601.788879,221.715897 603.847229,216.434326 
	C606.384155,209.924850 611.689453,206.914368 617.876343,208.473480 
	C623.377258,209.859741 627.372986,215.248398 626.879089,220.503952 
	C626.395569,225.648483 620.573242,232.210663 615.135925,230.962006 
	C614.186218,230.743896 613.157166,230.871582 611.770386,230.743576 
z"/>
<path fill="#F8F3ED" opacity="1.000000" stroke="none" 
	d="
M482.766663,230.209152 
	C473.414795,233.405792 465.805389,226.383530 466.747528,218.801102 
	C467.439819,213.229294 469.852966,209.651581 475.492096,208.361862 
	C480.725769,207.164886 485.965973,209.778442 488.337677,214.502823 
	C491.044861,219.895477 489.600800,226.880920 482.766663,230.209152 
z"/>
<path fill="#FAF7F3" opacity="1.000000" stroke="none" 
	d="
M554.031616,91.880676 
	C554.269287,92.121964 554.506958,92.363243 554.927368,93.177750 
	C555.864075,97.857368 556.618103,101.963768 557.372070,106.070160 
	C556.963379,106.783897 556.554749,107.497635 555.648560,108.579407 
	C550.818176,112.152779 545.915833,112.037933 540.921692,111.388008 
	C540.362793,111.078362 539.803833,110.768730 539.024231,109.941650 
	C538.169006,109.017250 537.534546,108.610306 536.900024,108.203369 
	C536.900024,108.203369 536.901978,108.099373 536.848267,107.680748 
	C534.994019,100.787712 534.909912,94.884354 541.921814,91.186035 
	C542.579407,90.839172 542.944641,89.937927 543.445557,89.294067 
	C545.406555,89.472389 547.367615,89.650711 549.852234,90.083984 
	C551.594421,90.852837 552.813049,91.366745 554.031616,91.880676 
z"/>
<path fill="#E8B670" opacity="1.000000" stroke="none" 
	d="
M516.598328,192.018707 
	C515.707947,194.636780 514.467529,197.288910 512.932007,200.571991 
	C535.375183,200.571991 557.425171,200.571991 579.968506,200.571991 
	C579.619202,199.213226 579.308655,198.005341 578.983459,196.404922 
	C579.917786,197.657410 580.866821,199.302429 581.815796,200.947449 
	C580.299683,201.634521 578.787415,202.909836 577.266907,202.919739 
	C556.853394,203.052704 536.438599,203.034012 516.024353,202.992218 
	C510.794830,202.981506 510.050476,201.738602 512.529053,197.052597 
	C513.488953,195.237915 514.992432,193.710846 516.598328,192.018707 
z"/>
<path fill="#E8B670" opacity="1.000000" stroke="none" 
	d="
M575.864441,189.921097 
	C573.951660,187.662796 571.971863,185.088745 570.240662,182.357147 
	C568.789185,180.066803 567.363037,179.218201 564.256287,179.360336 
	C553.144043,179.868729 541.910217,180.508179 530.901611,179.367859 
	C525.018188,178.758423 523.528198,182.051865 520.548706,185.237564 
	C521.638977,178.258255 523.109070,176.984833 529.893982,176.984604 
	C540.490662,176.984222 551.094971,177.222855 561.680725,176.883652 
	C566.836365,176.718460 570.753723,177.505051 572.627747,182.941284 
	C573.421265,185.242935 574.795105,187.344543 575.864441,189.921097 
z"/>
<path fill="#E0AF69" opacity="1.000000" stroke="none" 
	d="
M530.176392,169.004364 
	C540.622925,168.556610 550.996948,168.556610 561.766846,168.556610 
	C561.231384,167.240280 560.711426,165.961990 560.234863,164.318237 
	C561.391113,165.856064 562.504028,167.759354 563.616943,169.662659 
	C561.826477,170.438538 560.054932,171.828201 558.242188,171.884277 
	C550.292969,172.130310 542.328064,172.115738 534.378479,171.876068 
	C532.930542,171.832443 531.527649,170.298233 530.176392,169.004364 
z"/>
<path fill="#E8B670" opacity="1.000000" stroke="none" 
	d="
M543.049133,89.200806 
	C542.944641,89.937927 542.579407,90.839172 541.921814,91.186035 
	C534.909912,94.884354 534.994019,100.787712 536.796265,107.680450 
	C535.606995,105.325096 533.004089,102.246040 533.523987,99.842384 
	C534.551147,95.092934 536.503662,90.007881 543.049133,89.200806 
z"/>
<path fill="#E8B670" opacity="1.000000" stroke="none" 
	d="
M541.010986,111.738327 
	C545.915833,112.037933 550.818176,112.152779 555.507568,108.854797 
	C553.764954,114.077003 545.801392,115.871307 541.010986,111.738327 
z"/>
<path fill="#E8B670" opacity="1.000000" stroke="none" 
	d="
M557.693726,105.962746 
	C556.618103,101.963768 555.864075,97.857368 555.102722,93.361534 
	C559.966614,95.745781 560.968140,100.164520 557.693726,105.962746 
z"/>
<path fill="#E8B670" opacity="1.000000" stroke="none" 
	d="
M544.153625,122.757690 
	C545.474304,121.723816 546.833862,121.057472 548.193420,120.391129 
	C548.291443,121.418037 548.389404,122.444962 548.487366,123.471886 
	C547.055725,123.356331 545.624146,123.240776 544.153625,122.757690 
z"/>
<path fill="#E0AF69" opacity="1.000000" stroke="none" 
	d="
M536.529785,157.026398 
	C535.870056,158.700073 534.877686,160.436310 533.572266,162.319061 
	C534.238586,160.673370 535.217896,158.881149 536.529785,157.026398 
z"/>
<path fill="#E0AF69" opacity="1.000000" stroke="none" 
	d="
M544.545959,143.006882 
	C543.880615,144.682297 542.881653,146.426224 541.562744,148.305267 
	C542.232666,146.652054 543.222534,144.863708 544.545959,143.006882 
z"/>
<path fill="#E0AF69" opacity="1.000000" stroke="none" 
	d="
M555.803040,155.082535 
	C554.545410,153.861145 553.345703,152.255417 552.190613,150.306763 
	C553.443787,151.541962 554.652344,153.120087 555.803040,155.082535 
z"/>
<path fill="#E8B670" opacity="1.000000" stroke="none" 
	d="
M553.997070,91.552612 
	C552.813049,91.366745 551.594421,90.852837 550.232117,90.030685 
	C551.379761,90.223145 552.671204,90.723846 553.997070,91.552612 
z"/>
<path fill="#E8B670" opacity="1.000000" stroke="none" 
	d="
M519.704468,186.062103 
	C519.356506,187.407791 518.647400,188.792099 517.615112,190.319336 
	C517.975708,189.008408 518.659546,187.554565 519.704468,186.062103 
z"/>
<path fill="#E0AF69" opacity="1.000000" stroke="none" 
	d="
M559.867920,161.970703 
	C558.901855,161.122757 557.974670,159.899063 557.042847,158.326569 
	C557.994446,159.183517 558.950623,160.389236 559.867920,161.970703 
z"/>
<path fill="#E0AF69" opacity="1.000000" stroke="none" 
	d="
M547.973877,142.637833 
	C547.247620,142.980194 546.476379,142.990753 545.322144,142.939026 
	C545.935730,142.686523 546.932312,142.496277 547.973877,142.637833 
z"/>
<path fill="#E0AF69" opacity="1.000000" stroke="none" 
	d="
M551.034180,147.585724 
	C550.423340,147.135559 549.812012,146.357834 549.272217,145.266663 
	C549.907043,145.721527 550.470337,146.489853 551.034180,147.585724 
z"/>
<path fill="#E0AF69" opacity="1.000000" stroke="none" 
	d="
M540.814697,149.151535 
	C540.712585,150.048645 540.277832,151.074951 539.511597,152.230560 
	C539.614136,151.333496 540.048096,150.307114 540.814697,149.151535 
z"/>
<path fill="#E0AF69" opacity="1.000000" stroke="none" 
	d="
M532.605713,164.039398 
	C532.549927,164.690903 532.157776,165.391052 531.451355,166.184143 
	C531.514465,165.547409 531.891907,164.817734 532.605713,164.039398 
z"/>
<path fill="#E8B670" opacity="1.000000" stroke="none" 
	d="
M578.837402,194.990448 
	C578.195496,194.781967 577.597900,194.216599 576.997192,193.325836 
	C577.623291,193.544815 578.252502,194.089188 578.837402,194.990448 
z"/>
<path fill="#E8B670" opacity="1.000000" stroke="none" 
	d="
M536.957642,108.488708 
	C537.534546,108.610306 538.169006,109.017250 538.773560,109.743111 
	C538.167480,109.632690 537.591370,109.203369 536.957642,108.488708 
z"/>
<path fill="#E0AF69" opacity="1.000000" stroke="none" 
	d="
M556.936218,157.750549 
	C556.657227,157.950760 556.388550,157.787857 556.182922,157.231628 
	C556.456116,157.085190 556.689697,157.268234 556.936218,157.750549 
z"/>
<path fill="#FBF8F4" opacity="1.000000" stroke="none" 
	d="
M311.677551,201.358932 
	C333.713745,215.486755 364.013489,206.134476 373.702393,181.972656 
	C375.807953,176.721863 376.734222,170.728180 376.925690,165.033676 
	C377.384460,151.390350 377.064392,137.721420 377.098328,124.062927 
	C377.111267,118.859558 377.720001,118.928146 382.512299,119.969803 
	C386.567871,120.851334 390.955048,120.338638 395.187469,120.199417 
	C396.557037,120.154366 397.901245,119.337830 399.855560,118.669510 
	C400.027466,120.726311 400.248352,122.151581 400.250061,123.577118 
	C400.267426,138.068481 400.051514,152.562988 400.280243,167.050644 
	C400.825470,201.586990 368.660217,231.246414 336.227875,231.087601 
	C310.446075,230.961349 291.316772,219.996002 277.471161,198.952026 
	C271.216919,189.446213 268.597870,178.552246 268.254425,167.337616 
	C267.811005,152.859497 268.100708,138.358032 268.131592,123.866753 
	C268.142426,118.776489 268.691650,119.150795 273.713379,120.032982 
	C279.042572,120.969177 284.663727,120.243370 290.939667,120.243370 
	C291.000092,121.073784 291.229767,122.950722 291.258698,124.830742 
	C291.483734,139.472488 291.374329,154.126526 291.953156,168.753647 
	C292.513306,182.910248 299.753937,193.439545 311.677551,201.358932 
z"/>
<path fill="#F8F3ED" opacity="1.000000" stroke="none" 
	d="
M384.857666,90.208023 
	C395.264252,89.372192 400.252655,93.090530 400.231201,101.235382 
	C400.216217,106.929512 396.804260,111.232407 391.131531,112.711189 
	C386.337189,113.960983 380.998871,111.043732 378.165527,105.625687 
	C375.976624,101.439903 377.165161,96.122894 381.173462,92.595886 
	C382.163788,91.724472 383.364746,91.092407 384.857666,90.208023 
z"/>
<path fill="#F8F3ED" opacity="1.000000" stroke="none" 
	d="
M289.303528,108.010086 
	C281.942902,115.289032 273.967987,114.275909 269.357117,105.950363 
	C266.861908,101.444916 268.229248,97.634079 271.033051,94.001991 
	C274.275452,89.801781 278.832245,88.838379 283.548981,90.189857 
	C287.728088,91.387299 290.873169,94.465988 291.053345,99.089218 
	C291.164276,101.936172 290.089020,104.829346 289.303528,108.010086 
z"/>
<path fill="#E7A649" opacity="1.000000" stroke="none" 
	d="
M863.069458,201.962921 
	C863.345154,208.331146 863.620789,214.699356 863.863281,221.536591 
	C860.389832,227.025925 859.229004,233.432739 852.585754,236.428024 
	C841.039795,241.633774 830.259521,234.324326 827.096375,224.880478 
	C826.122253,221.972015 826.086182,218.661530 826.073120,215.533218 
	C825.989075,195.380371 826.062256,175.226868 825.971680,155.074066 
	C825.964355,153.435837 825.119080,151.801392 824.663147,150.165161 
	C823.117004,150.939713 821.249573,151.387054 820.075256,152.540237 
	C810.093994,162.342102 800.274048,172.307938 790.335388,182.153610 
	C781.228943,191.174881 768.901917,190.542542 759.968079,181.253372 
	C750.325439,171.227219 740.278320,161.588150 730.314819,151.875397 
	C729.361816,150.946411 727.750366,150.692841 726.444580,150.125717 
	C725.951782,151.563705 725.036133,152.999802 725.029724,154.439941 
	C724.936951,175.425522 724.961731,196.411606 724.967529,217.397583 
	C724.969727,225.438385 721.874146,231.584549 714.779602,235.884720 
	C703.061951,242.987122 687.730530,232.490341 687.853210,220.346786 
	C688.211426,184.874161 687.977234,149.395523 687.975586,113.919243 
	C687.975342,109.588806 688.004272,105.258179 687.973450,100.927971 
	C687.914062,92.590057 692.242249,86.773132 699.544495,83.959938 
	C706.542358,81.263962 713.704590,82.285248 719.362976,87.900208 
	C736.386902,104.793579 753.313416,121.785149 770.287781,138.728546 
	C774.990540,143.422592 776.060730,143.403732 780.859985,138.610382 
	C797.240540,122.250229 813.582703,105.851440 830.005432,89.533722 
	C837.299561,82.286285 846.732117,80.527443 854.027832,85.041672 
	C858.726196,87.948807 861.721924,92.278671 863.571167,97.799187 
	C863.564148,104.741196 863.321960,111.442566 862.644897,118.584053 
	C856.214478,117.226440 851.558105,118.652100 847.522583,123.788925 
	C844.049438,128.209900 839.540833,131.804550 835.679810,135.941620 
	C834.556519,137.145172 834.085205,138.957184 833.288696,140.633270 
	C833.262329,140.776260 833.102539,141.019180 832.695374,141.087158 
	C831.859375,142.303467 831.061707,143.450195 831.056824,144.600296 
	C830.979004,162.907135 831.046143,181.214569 830.971497,199.521423 
	C830.953552,203.917419 833.128723,204.508301 836.764343,203.621887 
	C839.634888,202.922012 842.675964,201.783295 845.470886,202.147507 
	C851.398315,202.919907 857.213623,204.057816 863.069458,201.962921 
M814.778259,148.971466 
	C816.225342,147.353302 817.672485,145.735153 819.794006,143.964111 
	C821.872314,140.790665 825.399353,137.766174 825.743896,134.414490 
	C826.607849,126.011360 826.092102,117.459198 825.966553,108.969231 
	C825.947693,107.690117 825.359741,106.039330 824.440430,105.304283 
	C823.934631,104.899933 821.872559,105.726997 821.049561,106.541702 
	C808.151978,119.309761 795.280762,132.106796 782.630981,145.118271 
	C781.643799,146.133667 781.519897,149.420639 782.402710,150.577469 
	C786.558228,156.023010 791.205139,161.093552 796.447815,167.195312 
	C798.382690,165.137680 800.746155,162.624283 803.746765,159.956863 
	C804.535583,159.008453 805.324463,158.060043 806.773010,156.970673 
	C808.219360,155.351685 809.665771,153.732697 811.748474,151.958542 
	C812.537720,151.010498 813.327026,150.062454 814.778259,148.971466 
M710.362488,120.069366 
	C710.570435,121.046310 710.778381,122.023254 711.359985,123.526390 
	C712.556946,124.725914 713.753906,125.925446 715.106262,127.826241 
	C716.441223,127.773155 718.939514,127.757622 718.942627,127.661545 
	C719.046082,124.455147 718.980591,121.234192 718.664307,118.042679 
	C718.641907,117.816994 716.516602,117.768066 715.365845,117.726204 
	C715.223145,117.721016 715.060303,118.268791 714.251648,118.822258 
	C713.183411,119.222351 712.115234,119.622437 710.362488,120.069366 
M694.955688,148.500000 
	C694.957214,164.643448 695.042236,180.787628 694.902344,196.929855 
	C694.866699,201.034256 695.927979,202.020630 700.161682,201.102585 
	C704.044434,200.260651 708.363403,200.308228 712.286072,201.047195 
	C717.560059,202.040756 717.886841,202.199112 717.902832,196.512924 
	C717.935120,185.029541 716.894531,173.431244 718.168823,162.090744 
	C719.868347,146.966110 715.666931,135.278122 703.233032,126.446793 
	C700.677490,124.631683 698.688293,122.019196 696.438049,119.774246 
	C695.943909,119.966385 695.449768,120.158524 694.955627,120.350670 
	C694.955627,129.400452 694.955627,138.450226 694.955688,148.500000 
M835.561157,212.180389 
	C831.849670,218.406326 832.344421,224.097885 836.964417,228.321106 
	C840.507629,231.560059 847.512756,232.076050 851.199524,229.369644 
	C857.367004,224.842102 858.599915,217.711548 854.191956,212.063385 
	C850.131897,206.861099 841.742554,206.660629 835.561157,212.180389 
M843.057129,89.580177 
	C837.651978,90.440529 834.509705,93.799805 833.337219,98.921829 
	C832.224609,103.782097 834.021667,107.991150 837.963135,110.719322 
	C842.037170,113.539185 846.601440,113.845413 851.091797,111.035973 
	C854.943909,108.625824 857.454346,103.229111 856.462585,99.075729 
	C854.963745,92.798676 851.040100,89.801674 843.057129,89.580177 
M786.764221,173.776764 
	C786.851196,172.457306 787.033691,171.136032 787.008606,169.818710 
	C786.893494,163.767990 781.377808,158.166061 775.700195,158.272354 
	C769.243469,158.393219 764.103088,163.574539 764.098145,169.966782 
	C764.093079,176.485779 766.779602,179.893753 773.300415,181.640274 
	C778.463684,183.023193 783.332275,180.413589 786.764221,173.776764 
M709.659973,208.510666 
	C704.242920,207.049942 699.103577,208.156708 696.762512,213.187653 
	C695.186584,216.574127 694.949646,221.424469 696.062439,225.016205 
	C697.576538,229.903351 703.790405,231.938828 709.489990,230.867630 
	C713.664246,230.083099 717.417236,225.577179 717.851257,220.829132 
	C718.385010,214.988815 716.011780,211.140549 709.659973,208.510666 
M699.760803,110.924431 
	C700.518982,111.262978 701.268616,111.622452 702.036743,111.936699 
	C707.152405,114.029411 712.987549,112.228828 715.967102,107.647545 
	C718.974304,103.023933 718.369202,96.809311 714.543640,93.026550 
	C709.924805,88.459389 702.249084,88.531372 697.542542,93.185921 
	C693.281372,97.400024 693.994385,105.349129 699.760803,110.924431 
M751.759460,164.863770 
	C753.140625,165.631516 754.521790,166.399261 755.203186,166.778000 
	C759.847351,161.240005 763.952515,156.121445 768.315369,151.232925 
	C770.629639,148.639877 770.273987,146.726654 767.984741,144.416504 
	C755.501221,131.818436 743.130432,119.108360 730.591858,106.565826 
	C729.634827,105.608521 727.668823,105.360550 726.191223,105.406593 
	C725.751282,105.420303 725.040161,107.558830 725.027466,108.730011 
	C724.932007,117.550819 724.838013,126.377312 725.094910,135.191803 
	C725.150757,137.106125 726.177734,139.412186 727.520264,140.799652 
	C735.273132,148.811951 743.254822,156.602798 751.759460,164.863770 
M840.269775,120.067444 
	C837.961243,119.572311 835.652710,119.077171 833.344177,118.582031 
	C832.941406,120.939369 832.259399,123.303017 832.312439,125.650032 
	C832.327637,126.321793 835.307556,127.697182 835.507874,127.474281 
	C837.396118,125.372025 838.976868,122.993454 840.269775,120.067444 
z"/>
<path fill="#E3AC5E" opacity="1.000000" stroke="none" 
	d="
M833.315002,140.490265 
	C834.085205,138.957184 834.556519,137.145172 835.679810,135.941620 
	C839.540833,131.804550 844.049438,128.209900 847.522583,123.788925 
	C851.558105,118.652100 856.214478,117.226440 862.639709,119.030869 
	C863.072754,146.389420 863.076111,173.741272 863.074463,201.528015 
	C857.213623,204.057816 851.398315,202.919907 845.470886,202.147507 
	C842.675964,201.783295 839.634888,202.922012 836.764343,203.621887 
	C833.128723,204.508301 830.953552,203.917419 830.971497,199.521423 
	C831.046143,181.214569 830.979004,162.907135 831.056824,144.600296 
	C831.061707,143.450195 831.859375,142.303467 832.725342,141.553070 
	C833.157104,160.245850 833.130920,178.540756 833.159424,196.835571 
	C833.167603,202.088623 833.778503,202.622360 838.583252,200.789505 
	C842.832703,199.168488 846.869629,198.704529 851.069336,200.782394 
	C854.948914,202.701889 855.991272,200.934677 855.978394,197.135284 
	C855.897827,173.352203 855.962036,149.568634 855.895630,125.785469 
	C855.891235,124.207329 855.203979,122.631096 854.674683,120.373024 
	C847.032288,127.570877 840.173645,134.030563 833.315002,140.490265 
z"/>
<path fill="#FAF7F3" opacity="1.000000" stroke="none" 
	d="
M694.955688,148.000000 
	C694.955627,138.450226 694.955627,129.400452 694.955627,120.350670 
	C695.449768,120.158524 695.943909,119.966385 696.438049,119.774246 
	C698.688293,122.019196 700.677490,124.631683 703.233032,126.446793 
	C715.666931,135.278122 719.868347,146.966110 718.168823,162.090744 
	C716.894531,173.431244 717.935120,185.029541 717.902832,196.512924 
	C717.886841,202.199112 717.560059,202.040756 712.286072,201.047195 
	C708.363403,200.308228 704.044434,200.260651 700.161682,201.102585 
	C695.927979,202.020630 694.866699,201.034256 694.902344,196.929855 
	C695.042236,180.787628 694.957214,164.643448 694.955688,148.000000 
z"/>
<path fill="#FAF7F3" opacity="1.000000" stroke="none" 
	d="
M833.288696,140.633270 
	C840.173645,134.030563 847.032288,127.570877 854.674683,120.373024 
	C855.203979,122.631096 855.891235,124.207329 855.895630,125.785469 
	C855.962036,149.568634 855.897827,173.352203 855.978394,197.135284 
	C855.991272,200.934677 854.948914,202.701889 851.069336,200.782394 
	C846.869629,198.704529 842.832703,199.168488 838.583252,200.789505 
	C833.778503,202.622360 833.167603,202.088623 833.159424,196.835571 
	C833.130920,178.540756 833.157104,160.245850 833.132568,141.485077 
	C833.102539,141.019180 833.262329,140.776260 833.288696,140.633270 
z"/>
<path fill="#F9F4ED" opacity="1.000000" stroke="none" 
	d="
M835.828735,211.905685 
	C841.742554,206.660629 850.131897,206.861099 854.191956,212.063385 
	C858.599915,217.711548 857.367004,224.842102 851.199524,229.369644 
	C847.512756,232.076050 840.507629,231.560059 836.964417,228.321106 
	C832.344421,224.097885 831.849670,218.406326 835.828735,211.905685 
z"/>
<path fill="#F9F4ED" opacity="1.000000" stroke="none" 
	d="
M843.436584,89.497955 
	C851.040100,89.801674 854.963745,92.798676 856.462585,99.075729 
	C857.454346,103.229111 854.943909,108.625824 851.091797,111.035973 
	C846.601440,113.845413 842.037170,113.539185 837.963135,110.719322 
	C834.021667,107.991150 832.224609,103.782097 833.337219,98.921829 
	C834.509705,93.799805 837.651978,90.440529 843.436584,89.497955 
z"/>
<path fill="#F9F4ED" opacity="1.000000" stroke="none" 
	d="
M786.646667,174.163208 
	C783.332275,180.413589 778.463684,183.023193 773.300415,181.640274 
	C766.779602,179.893753 764.093079,176.485779 764.098145,169.966782 
	C764.103088,163.574539 769.243469,158.393219 775.700195,158.272354 
	C781.377808,158.166061 786.893494,163.767990 787.008606,169.818710 
	C787.033691,171.136032 786.851196,172.457306 786.646667,174.163208 
z"/>
<path fill="#F8F3ED" opacity="1.000000" stroke="none" 
	d="
M710.039185,208.643707 
	C716.011780,211.140549 718.385010,214.988815 717.851257,220.829132 
	C717.417236,225.577179 713.664246,230.083099 709.489990,230.867630 
	C703.790405,231.938828 697.576538,229.903351 696.062439,225.016205 
	C694.949646,221.424469 695.186584,216.574127 696.762512,213.187653 
	C699.103577,208.156708 704.242920,207.049942 710.039185,208.643707 
z"/>
<path fill="#F9F4ED" opacity="1.000000" stroke="none" 
	d="
M699.429810,110.730911 
	C693.994385,105.349129 693.281372,97.400024 697.542542,93.185921 
	C702.249084,88.531372 709.924805,88.459389 714.543640,93.026550 
	C718.369202,96.809311 718.974304,103.023933 715.967102,107.647545 
	C712.987549,112.228828 707.152405,114.029411 702.036743,111.936699 
	C701.268616,111.622452 700.518982,111.262978 699.429810,110.730911 
z"/>
<path fill="#F0C488" opacity="1.000000" stroke="none" 
	d="
M751.459229,164.666214 
	C743.254822,156.602798 735.273132,148.811951 727.520264,140.799652 
	C726.177734,139.412186 725.150757,137.106125 725.094910,135.191803 
	C724.838013,126.377312 724.932007,117.550819 725.027466,108.730011 
	C725.040161,107.558830 725.751282,105.420303 726.191223,105.406593 
	C727.668823,105.360550 729.634827,105.608521 730.591858,106.565826 
	C743.130432,119.108360 755.501221,131.818436 767.984741,144.416504 
	C770.273987,146.726654 770.629639,148.639877 768.315369,151.232925 
	C763.952515,156.121445 759.847351,161.240005 755.203186,166.778000 
	C754.521790,166.399261 753.140625,165.631516 751.459229,164.666214 
M751.766785,161.843491 
	C753.712097,164.389191 755.119873,165.204254 757.141907,161.528824 
	C759.022644,158.110184 761.643433,154.942505 764.494690,152.254272 
	C767.899597,149.044006 767.639099,146.761185 764.416931,143.619385 
	C753.565491,133.038773 742.932495,122.234291 732.188416,111.543121 
	C731.213684,110.573166 730.041687,109.801407 728.015625,108.181572 
	C728.015625,118.786888 727.975647,128.190903 728.084717,137.593185 
	C728.094360,138.425873 728.944641,139.379410 729.625488,140.053635 
	C736.812683,147.170425 744.044800,154.241837 751.766785,161.843491 
z"/>
<path fill="#E3BE87" opacity="1.000000" stroke="none" 
	d="
M803.109619,160.110901 
	C800.746155,162.624283 798.382690,165.137680 796.447815,167.195312 
	C791.205139,161.093552 786.558228,156.023010 782.402710,150.577469 
	C781.519897,149.420639 781.643799,146.133667 782.630981,145.118271 
	C795.280762,132.106796 808.151978,119.309761 821.049561,106.541702 
	C821.872559,105.726997 823.934631,104.899933 824.440430,105.304283 
	C825.359741,106.039330 825.947693,107.690117 825.966553,108.969231 
	C826.092102,117.459198 826.607849,126.011360 825.743896,134.414490 
	C825.399353,137.766174 821.872314,140.790665 819.343933,143.929031 
	C818.893860,143.893951 818.668579,143.670410 818.808838,143.356934 
	C820.308533,141.192719 822.759644,139.389496 822.842590,137.483215 
	C823.249817,128.125412 823.027466,118.740234 823.027466,109.346893 
	C822.056580,109.346893 821.606445,109.209320 821.447266,109.366432 
	C809.270081,121.384544 797.067505,133.378250 785.064880,145.568893 
	C784.234741,146.412109 784.220459,149.264236 785.000793,150.280807 
	C788.576721,154.938965 792.570801,159.276154 796.618713,163.964859 
	C798.461853,162.649780 800.558472,161.153870 802.768738,159.771149 
	C802.882446,159.884308 803.109680,160.110916 803.109619,160.110901 
z"/>
<path fill="#ECDABF" opacity="1.000000" stroke="none" 
	d="
M840.458008,120.381012 
	C838.976868,122.993454 837.396118,125.372025 835.507874,127.474281 
	C835.307556,127.697182 832.327637,126.321793 832.312439,125.650032 
	C832.259399,123.303017 832.941406,120.939369 833.344177,118.582031 
	C835.652710,119.077171 837.961243,119.572311 840.458008,120.381012 
z"/>
<path fill="#F3ECE1" opacity="1.000000" stroke="none" 
	d="
M714.950867,127.124977 
	C713.753906,125.925446 712.556946,124.725914 711.228760,122.893456 
	C711.080750,121.514519 711.063843,120.768509 711.046997,120.022514 
	C712.115234,119.622437 713.183411,119.222351 714.961975,118.837921 
	C719.124451,121.660530 718.843628,124.880142 714.950867,127.124977 
z"/>
<path fill="#E8B670" opacity="1.000000" stroke="none" 
	d="
M715.028564,127.475609 
	C718.843628,124.880142 719.124451,121.660530 715.289551,118.706955 
	C715.060303,118.268791 715.223145,117.721016 715.365845,117.726204 
	C716.516602,117.768066 718.641907,117.816994 718.664307,118.042679 
	C718.980591,121.234192 719.046082,124.455147 718.942627,127.661545 
	C718.939514,127.757622 716.441223,127.773155 715.028564,127.475609 
z"/>
<path fill="#E3BE87" opacity="1.000000" stroke="none" 
	d="
M811.112183,152.113708 
	C809.665771,153.732697 808.219360,155.351685 806.329407,156.928009 
	C805.885803,156.885330 805.658691,156.658707 805.794373,156.357666 
	C807.506775,154.592087 809.083435,153.127548 810.773315,151.775574 
	C810.886414,151.888123 811.112183,152.113724 811.112183,152.113708 
z"/>
<path fill="#E3BE87" opacity="1.000000" stroke="none" 
	d="
M819.006714,144.005463 
	C817.672485,145.735153 816.225342,147.353302 814.335571,148.931549 
	C813.892822,148.891647 813.669922,148.668411 813.802673,148.364319 
	C815.513123,146.596954 817.090820,145.133667 818.668579,143.670410 
	C818.668579,143.670410 818.893860,143.893951 819.006714,144.005463 
z"/>
<path fill="#E3BE87" opacity="1.000000" stroke="none" 
	d="
M805.999573,156.998474 
	C805.324463,158.060043 804.535583,159.008453 803.428223,160.033890 
	C803.109680,160.110916 802.882446,159.884308 802.895630,159.487091 
	C803.825500,158.279495 804.742065,157.469101 805.658691,156.658691 
	C805.658691,156.658707 805.885803,156.885330 805.999573,156.998474 
z"/>
<path fill="#E3BE87" opacity="1.000000" stroke="none" 
	d="
M814.004517,149.003021 
	C813.327026,150.062454 812.537720,151.010498 811.430298,152.036133 
	C811.112183,152.113724 810.886414,151.888123 810.897827,151.489685 
	C811.829468,150.283646 812.749695,149.476028 813.669922,148.668411 
	C813.669922,148.668411 813.892822,148.891647 814.004517,149.003021 
z"/>
<path fill="#E8B670" opacity="1.000000" stroke="none" 
	d="
M710.704712,120.045937 
	C711.063843,120.768509 711.080750,121.514519 711.041992,122.630356 
	C710.778381,122.023254 710.570435,121.046310 710.704712,120.045937 
z"/>
<path fill="#FBF9F5" opacity="1.000000" stroke="none" 
	d="
M751.515686,161.584625 
	C744.044800,154.241837 736.812683,147.170425 729.625488,140.053635 
	C728.944641,139.379410 728.094360,138.425873 728.084717,137.593185 
	C727.975647,128.190903 728.015625,118.786888 728.015625,108.181572 
	C730.041687,109.801407 731.213684,110.573166 732.188416,111.543121 
	C742.932495,122.234291 753.565491,133.038773 764.416931,143.619385 
	C767.639099,146.761185 767.899597,149.044006 764.494690,152.254272 
	C761.643433,154.942505 759.022644,158.110184 757.141907,161.528824 
	C755.119873,165.204254 753.712097,164.389191 751.515686,161.584625 
z"/>
<path fill="#FBF9F5" opacity="1.000000" stroke="none" 
	d="
M813.802673,148.364319 
	C812.749695,149.476028 811.829468,150.283646 810.784668,151.377136 
	C809.083435,153.127548 807.506775,154.592087 805.794373,156.357666 
	C804.742065,157.469101 803.825500,158.279495 802.781982,159.373932 
	C800.558472,161.153870 798.461853,162.649780 796.618713,163.964859 
	C792.570801,159.276154 788.576721,154.938965 785.000793,150.280807 
	C784.220459,149.264236 784.234741,146.412109 785.064880,145.568893 
	C797.067505,133.378250 809.270081,121.384544 821.447266,109.366432 
	C821.606445,109.209320 822.056580,109.346893 823.027466,109.346893 
	C823.027466,118.740234 823.249817,128.125412 822.842590,137.483215 
	C822.759644,139.389496 820.308533,141.192719 818.808838,143.356918 
	C817.090820,145.133667 815.513123,146.596954 813.802673,148.364319 
z"/>
</svg>